<?xml version="1.0" encoding="UTF-8"?>
<svg version="1.1" xmlns="http://www.w3.org/2000/svg" width="1024" height="1024">
<path d="M0 0 C337.92 0 675.84 0 1024 0 C1024 337.92 1024 675.84 1024 1024 C686.08 1024 348.16 1024 0 1024 C0 686.08 0 348.16 0 0 Z " fill="#000000" transform="translate(0,0)"/>
<path d="M0 0 C337.92 0 675.84 0 1024 0 C1024 337.92 1024 675.84 1024 1024 C686.08 1024 348.16 1024 0 1024 C0 686.08 0 348.16 0 0 Z M451.125 77.75 C450.14152588 77.87921844 450.14152588 77.87921844 449.13818359 78.01104736 C382.73686841 86.78972232 318.92873507 109.89801528 263 147 C262.28875977 147.47179687 261.57751953 147.94359375 260.84472656 148.4296875 C251.60947599 154.59503689 242.71091127 161.11687622 234 168 C233.16339844 168.65355469 232.32679688 169.30710937 231.46484375 169.98046875 C221.44786726 177.88003558 211.80615407 186.26860122 202.37109375 194.8515625 C200.72953553 196.3389711 199.07492655 197.81205543 197.41015625 199.2734375 C192.85814269 203.28468554 188.67717825 207.3407099 184.76953125 211.98046875 C182.81923286 214.20630598 180.74652844 216.24959756 178.625 218.3125 C174.52889596 222.36008842 170.89222292 226.65034635 167.296875 231.14453125 C165.01914695 233.97619656 162.67168447 236.73605349 160.3125 239.5 C141.96996415 261.55067195 126.64870181 285.8234473 113 311 C112.48308594 311.94875 111.96617188 312.8975 111.43359375 313.875 C96.84061033 340.79338545 84.68004097 369.24676202 76.62353516 398.83105469 C75.8375285 401.56515146 74.95865154 404.26639872 74.09375 406.9765625 C71.95690106 413.88779359 70.33141154 420.87189017 68.81738281 427.93847656 C68.37506629 429.99969109 67.92254728 432.05847356 67.46875 434.1171875 C64.64732731 447.04074991 62.79909436 459.97012542 61.4375 473.125 C61.31181641 474.30964844 61.18613281 475.49429687 61.05664062 476.71484375 C60.69573228 480.14252825 60.33909781 483.5700824 60 487 C59.87291908 488.22999222 59.87291908 488.22999222 59.74327087 489.48483276 C59.1040919 495.97663478 58.814184 502.40822868 58.76171875 508.9296875 C58.75197021 509.94613342 58.74222168 510.96257935 58.73217773 512.00982666 C58.48519474 544.51711036 60.06107224 576.00348398 67.28173828 607.79296875 C68.07714927 611.34447071 68.81862466 614.9052981 69.55859375 618.46875 C73.19123839 635.74057303 77.89787205 652.41577761 84 669 C84.42297363 670.15097168 84.84594727 671.30194336 85.28173828 672.48779297 C91.59206692 689.46128918 98.84871631 705.8350663 107 722 C107.42635742 722.85384277 107.85271484 723.70768555 108.29199219 724.58740234 C119.80034485 747.53565989 133.82887124 769.20641654 149.71435547 789.36279297 C151.07062973 791.08994359 152.41303991 792.82727207 153.75390625 794.56640625 C158.54240684 800.75446859 163.42098779 806.7707545 168.734375 812.5234375 C169.97164988 813.87590694 171.20146521 815.23599705 172.39160156 816.63012695 C177.51700778 822.62610535 183.03054655 828.21667906 188.60498047 833.7902832 C190.23827448 835.42575882 191.8633847 837.06907708 193.48828125 838.71289062 C199.27633686 844.53114717 205.15243645 849.97619988 211.60253906 855.06396484 C214.00962902 857.00777577 216.25629368 859.05850634 218.5 861.1875 C229.93621174 871.6022957 243.17039487 880.39589727 256 889 C256.61456055 889.41282227 257.22912109 889.82564453 257.86230469 890.25097656 C273.86662804 900.94956184 290.5092532 910.6321882 307.86572266 918.96972656 C310.22399246 920.10812722 312.57062769 921.26892938 314.91796875 922.4296875 C347.72297072 938.51847105 383.21711843 949.75198021 419 957 C419.81307617 957.16741699 420.62615234 957.33483398 421.46386719 957.50732422 C437.19115207 960.70258526 453.01792669 962.60229775 469 964 C470.0928833 964.09716309 471.1857666 964.19432617 472.31176758 964.29443359 C555.59094514 970.7934181 637.78643022 954.98923537 763.30322266 890.17480469 C764.99162855 889.00579617 766.68807754 887.84938498 768.38671875 886.6953125 C778.510286 879.77055289 788.27620288 872.45698918 797.8125 864.75 C798.40329346 864.27401367 798.99408691 863.79802734 799.6027832 863.30761719 C801.75139357 861.55704432 803.87820038 859.7830284 806 858 C806.52335938 857.5602887 807.04671875 857.12057739 807.5859375 856.6675415 C816.7918995 848.89936675 825.53994366 840.77936339 834.02734375 832.23339844 C835.88838841 830.36153375 837.76003428 828.50074273 839.6328125 826.640625 C846.55038739 819.73068629 852.9357759 812.67792169 859 805 C859.95834059 803.86316582 860.92332667 802.73185775 861.8984375 801.609375 C889.38870686 769.8698211 912.24396449 731.85979164 928 693 C928.45850342 691.8874585 928.45850342 691.8874585 928.92626953 690.75244141 C944.84187313 652.1047747 955.1496188 613.6098964 960 572 C960.08720306 571.30447021 960.17440613 570.60894043 960.26425171 569.89233398 C962.16028886 554.6406303 962.35624775 539.48020828 962.3125 524.125 C962.31076279 522.23812973 962.31076279 522.23812973 962.30899048 520.31314087 C962.27503335 501.66771273 961.65752506 483.46663542 959 465 C958.77879735 463.25421527 958.55992508 461.50813316 958.34375 459.76171875 C952.98117566 418.52803494 940.46127208 377.65782539 923 340 C922.52804199 338.97390625 922.05608398 337.9478125 921.56982422 336.890625 C915.07120074 322.82563983 908.09750851 309.21098218 900 296 C899.52062988 295.21431641 899.04125977 294.42863281 898.54736328 293.61914062 C884.36288907 270.4787587 868.40428382 248.42526593 850.12109375 228.3359375 C848.20233667 226.22283118 846.31277068 224.08917113 844.4375 221.9375 C843.87804687 221.298125 843.31859375 220.65875 842.7421875 220 C841.51248151 218.58831958 840.28911054 217.17110865 839.0703125 215.75 C835.34523953 211.45964358 831.53688875 207.60974885 827.19921875 203.9453125 C824.51834638 201.5739547 822.0106396 199.04800925 819.5 196.5 C815.16508196 192.11854936 810.73324905 187.94883113 806 184 C805.18144531 183.31550781 804.36289062 182.63101563 803.51953125 181.92578125 C779.61061778 162.15693938 754.13189046 145.01538652 727 130 C726.22462891 129.5683252 725.44925781 129.13665039 724.65039062 128.69189453 C702.10972098 116.21854644 678.29918739 106.47001282 654 98 C652.81591553 97.5860498 651.63183105 97.17209961 650.41186523 96.74560547 C641.56254551 93.71831292 632.65198785 91.21991103 623.5625 89 C622.87334503 88.8301358 622.18419006 88.66027161 621.47415161 88.48526001 C585.40278986 79.60279924 549.68960108 74.58854837 512.47924805 74.79418945 C509.04012693 74.8126199 505.6012752 74.81469678 502.16210938 74.81445312 C484.99224848 74.84048253 468.16322933 75.49087352 451.125 77.75 Z " fill="#FDFDFD" transform="translate(0,0)"/>
<path d="M0 0 C2.23218772 2.23218772 2.44777435 3.15168682 3.11328125 6.15625 C3.30672119 7.00501709 3.50016113 7.85378418 3.69946289 8.72827148 C3.90176514 9.64294189 4.10406738 10.5576123 4.3125 11.5 C6.58861993 21.42435866 9.19084986 31.21499462 12 41 C12.47373047 42.65902344 12.47373047 42.65902344 12.95703125 44.3515625 C13.58621753 46.55237578 14.2164804 48.75288148 14.84765625 50.953125 C16.35624388 56.23386434 17.83274659 61.52362447 19.3125 66.8125 C19.761698 68.41798706 19.761698 68.41798706 20.2199707 70.0559082 C21.44883888 74.44965778 22.6770235 78.84359765 23.90429688 83.23779297 C27.14463104 94.83953645 30.39829526 106.43670594 33.72192383 118.01489258 C36.07191461 126.2151442 38.36320644 134.43166184 40.640625 142.65234375 C41.98444241 147.48013223 43.38979641 152.25293754 45 157 C45.5 159.625 45.5 159.625 45 162 C44.01562958 162.53490051 43.03125916 163.06980103 42.01705933 163.62091064 C38.62093721 165.77043237 38.62093721 165.77043237 38.24050903 169.78387451 C38.20545116 171.33567009 38.20331633 172.88841962 38.22705078 174.44042969 C38.21642105 175.28957443 38.20579132 176.13871918 38.19483948 177.01359558 C38.1667611 179.81695627 38.18085423 182.61843772 38.1953125 185.421875 C38.18406409 187.36673631 38.1701842 189.31158405 38.15377808 191.25640869 C38.11769292 196.37262316 38.11737252 201.48824064 38.12445068 206.60455322 C38.12536261 211.82632168 38.09251913 217.04786521 38.0625 222.26953125 C38.00859348 232.51308334 37.99246129 242.75632177 38 253 C36.9884787 253.02669266 35.9769574 253.05338531 34.93478394 253.08088684 C24.34732953 253.36092441 13.76007962 253.64795852 3.17295837 253.94031525 C1.28431206 253.99219079 -0.60436262 254.04303157 -2.49304199 254.09368896 C-31.41010868 254.78230309 -31.41010868 254.78230309 -59.50488281 261.18115234 C-62.13946331 262.04576907 -64.79041307 262.80506602 -67.4609375 263.55078125 C-69.203705 264.05267788 -70.94591969 264.55649919 -72.6875 265.0625 C-73.86566284 265.39362793 -73.86566284 265.39362793 -75.06762695 265.73144531 C-79.80156188 267.19582042 -82.25302925 268.6535273 -85 273 C-86.48889773 275.97779546 -86.16025034 278.69418921 -86.19287109 282.01660156 C-86.20104858 282.73877365 -86.20922607 283.46094574 -86.21765137 284.20500183 C-86.24250728 286.60020111 -86.25902321 288.99534105 -86.2734375 291.390625 C-86.28142302 292.61780369 -86.28142302 292.61780369 -86.28956985 293.86977386 C-86.31630436 298.20142175 -86.33567686 302.5330408 -86.35009766 306.86474609 C-86.3667319 311.33499649 -86.41149781 315.80450769 -86.4624691 320.27447891 C-86.49615994 323.71464871 -86.50767712 327.1546436 -86.51332474 330.59496307 C-86.52003392 332.24238473 -86.5352475 333.88979501 -86.55921555 335.53705597 C-86.5909071 337.8472523 -86.59089889 340.15546285 -86.58349609 342.46582031 C-86.59158295 343.77883118 -86.5996698 345.09184204 -86.60800171 346.44464111 C-85.80851327 351.11974033 -84.35672795 352.70380207 -81 356 C-78.20073295 357.11472 -78.20073295 357.11472 -75.140625 357.35546875 C-73.46613281 357.57686523 -73.46613281 357.57686523 -71.7578125 357.80273438 C-70.60023438 357.92970703 -69.44265625 358.05667969 -68.25 358.1875 C-50.85919921 360.29755766 -50.85919921 360.29755766 -46 363 C-44.14839957 365.53364814 -43.11354253 368.08333585 -42 371 C-39.93012697 375.75562853 -37.49868812 378.80432221 -33.75 382.375 C-30.53308912 385.49136596 -27.36434211 388.60514257 -24.4375 392 C-23.62539063 392.93779297 -23.62539063 392.93779297 -22.796875 393.89453125 C-21.42067188 395.5070823 -20.0587062 397.13179374 -18.703125 398.76171875 C-10.74457258 408.01786124 -3.74151508 411.58399125 8 414 C7.93941406 412.93265625 7.87882813 411.8653125 7.81640625 410.765625 C7.5882647 406.72517847 7.36608238 402.68442078 7.14550781 398.64355469 C7.05007454 396.90974349 6.9531219 395.17601511 6.85449219 393.44238281 C6.22065969 382.2791696 5.85943628 371.18262458 6 360 C7.65 360 9.3 360 11 360 C11.05945801 361.15000488 11.05945801 361.15000488 11.12011719 362.32324219 C11.3107653 365.80020026 11.53004922 369.27477775 11.75 372.75 C11.811875 373.9565625 11.87375 375.163125 11.9375 376.40625 C12.01484375 377.56640625 12.0921875 378.7265625 12.171875 379.921875 C12.2347168 380.99018555 12.29755859 382.05849609 12.36230469 383.15917969 C13.32944001 387.46759722 15.67363567 389.102308 19.22314453 391.50463867 C20.01833496 391.9710376 20.81352539 392.43743652 21.6328125 392.91796875 C22.51646484 393.44543701 23.40011719 393.97290527 24.31054688 394.51635742 C25.23931641 395.06783447 26.16808594 395.61931152 27.125 396.1875 C33.88657771 400.28301555 39.9902019 404.25427931 45.6484375 409.7890625 C48.64530083 412.60671141 51.85219086 415.0758154 55.125 417.5625 C55.70701172 418.00489014 56.28902344 418.44728027 56.88867188 418.90307617 C58.25659873 419.9387156 59.62792218 420.96986634 61 422 C61.19391784 399.86365253 61.19391784 399.86365253 60.22265625 377.7578125 C59.83262246 371.17513688 59.92015913 364.59130773 60 358 C61.98 358 63.96 358 66 358 C66.01981934 358.76626709 66.03963867 359.53253418 66.06005859 360.32202148 C66.45877842 375.20572589 66.96547956 390.08097734 67.81402588 404.94656372 C67.89599606 406.39275185 67.9750819 407.83910651 68.0512085 409.28561401 C68.15943559 411.31850215 68.28063277 413.35068709 68.40234375 415.3828125 C68.50276978 417.12135498 68.50276978 417.12135498 68.60522461 418.89501953 C69.02308131 422.18153868 69.57018885 425.57018885 72 428 C73.7396807 427.9619048 75.47935561 427.92351959 77.21899414 427.88354492 C83.48039016 427.85872906 87.98202233 428.12243924 92.71533203 432.70947266 C94.00321866 434.12246027 95.23950176 435.58197048 96.47265625 437.04296875 C98.56785795 439.49438712 100.06648619 440.7659444 102.61523438 442.56030273 C104.76730227 444.3921217 105.84685704 445.45441277 106.61582947 448.19395447 C106.80874352 450.81987988 106.78809315 453.36124951 106.68359375 455.9921875 C106.67368912 456.93812775 106.66378448 457.88406799 106.65357971 458.8586731 C106.61454343 461.865725 106.52674483 464.8690609 106.4375 467.875 C106.40237209 469.91921793 106.37043567 471.96349336 106.34179688 474.0078125 C106.26481676 479.00662958 106.14411065 484.00268591 106 489 C99.49677084 488.4970996 93.19569057 487.78441177 86.8125 486.4375 C86.14669922 486.29892578 85.48089844 486.16035156 84.79492188 486.01757812 C83.19545896 485.68387723 81.59753925 485.34279182 80 485 C79.64766839 479.62694301 79.64766839 479.62694301 80 477 C82 475 82 475 84 474 C82.67142972 470.01428916 80.16335137 468.33245428 76.9375 465.875 C76.40833984 465.41996094 75.87917969 464.96492188 75.33398438 464.49609375 C64.956758 456.66378627 44.9508931 459.84116628 32.53879166 459.80076981 C29.18261478 459.78879418 25.82655618 459.76930437 22.47042847 459.74765015 C12.94093768 459.68660616 3.41146795 459.63190094 -6.11816406 459.59863281 C-11.9787301 459.57763879 -17.83906417 459.54232099 -23.69949722 459.49787521 C-25.91849157 459.4837798 -28.13752675 459.47500749 -30.35656357 459.47182083 C-33.45914706 459.4668871 -36.56111657 459.44367274 -39.66357422 459.41650391 C-40.56561081 459.41951004 -41.4676474 459.42251617 -42.39701843 459.4256134 C-50.01270851 459.32706852 -58.85092947 458.21775689 -64.63574219 452.75927734 C-67.89254156 448.55947486 -69.92859727 443.61949778 -72.125 438.8125 C-72.6914483 437.60089123 -73.25918038 436.38988191 -73.828125 435.17944336 C-75.2881076 432.06355742 -76.72997848 428.93967025 -78.1661377 425.81274414 C-79.45442467 423.01212028 -80.75527461 420.21735035 -82.0546875 417.421875 C-84.02326512 413.17724112 -85.98226791 408.92837264 -87.93359375 404.67578125 C-91.00568587 397.98096737 -94.09767049 391.29551281 -97.19799805 384.61373901 C-98.04100815 382.79633327 -98.88282444 380.97837393 -99.72460938 379.16040039 C-100.23958984 378.05043701 -100.75457031 376.94047363 -101.28515625 375.796875 C-101.96396851 374.33266113 -101.96396851 374.33266113 -102.65649414 372.83886719 C-104.06148863 369.87007272 -105.52098074 366.93252415 -107 364 C-109.87595051 367.45804684 -111.66220493 371.29043051 -113.50390625 375.35546875 C-114.16855695 376.79625295 -114.83327239 378.23700728 -115.49804688 379.67773438 C-116.53570953 381.94174804 -117.57126434 384.20670522 -118.60522461 386.47241211 C-119.60786685 388.66505544 -120.61801466 390.85411936 -121.62890625 393.04296875 C-121.93727921 393.72522018 -122.24565216 394.40747162 -122.56336975 395.11039734 C-124.77385581 399.88692791 -124.77385581 399.88692791 -127 401 C-127.07594813 393.79181655 -127.12855678 386.58373595 -127.16479492 379.37524414 C-127.17989881 376.92207992 -127.20038321 374.46894276 -127.22631836 372.01586914 C-127.26263057 368.49358445 -127.27971036 364.97165619 -127.29296875 361.44921875 C-127.30845261 360.34913986 -127.32393646 359.24906097 -127.33988953 358.11564636 C-127.34011612 357.09481461 -127.34034271 356.07398285 -127.34057617 355.0222168 C-127.35056892 353.67319527 -127.35056892 353.67319527 -127.36076355 352.29692078 C-126.92722203 349.5366349 -126.0570075 348.79958061 -124 347 C-123.54913655 344.24114506 -123.81807551 341.81982959 -124 339 C-125.67195977 337.32804023 -127.70890629 337.87214832 -129.94090271 337.86105347 C-130.97369102 337.86408981 -130.97369102 337.86408981 -132.02734375 337.8671875 C-132.73145889 337.86623077 -133.43557404 337.86527405 -134.161026 337.86428833 C-135.65316863 337.86360659 -137.14531421 337.86546048 -138.63745117 337.86962891 C-140.92438418 337.87496937 -143.21112008 337.8696879 -145.49804688 337.86328125 C-146.94531293 337.86394219 -148.39257887 337.86522368 -149.83984375 337.8671875 C-150.86959572 337.86415115 -150.86959572 337.86415115 -151.92015076 337.86105347 C-155.58336824 337.83346741 -155.58336824 337.83346741 -159 339 C-159.33 358.47 -159.66 377.94 -160 398 C-173.53 398 -187.06 398 -201 398 C-197.62898936 387.88696809 -197.62898936 387.88696809 -195.609375 383.078125 C-195.15506104 381.98967285 -194.70074707 380.9012207 -194.23266602 379.77978516 C-193.74338623 378.61495605 -193.25410645 377.45012695 -192.75 376.25 C-191.66823607 373.65982515 -190.5895759 371.06836524 -189.51171875 368.4765625 C-189.08758949 367.45730179 -189.08758949 367.45730179 -188.65489197 366.41744995 C-185.23252867 358.17693034 -181.90198676 349.89935107 -178.5625 341.625 C-173.62260639 329.38958617 -168.59592162 317.19601381 -163.44882202 305.04632568 C-160.48762538 298.05197717 -157.59473262 291.03977929 -154.8515625 283.95703125 C-154.59838257 283.30439804 -154.34520264 282.65176483 -154.08435059 281.97935486 C-152.88102846 278.87094332 -151.68966351 275.75892473 -150.51269531 272.64038086 C-150.09342773 271.54733643 -149.67416016 270.45429199 -149.2421875 269.328125 C-148.8797998 268.3680957 -148.51741211 267.40806641 -148.14404297 266.41894531 C-147.00456309 264.00964813 -146.07894621 262.64247875 -144 261 C-142.4840625 260.5359375 -142.4840625 260.5359375 -140.9375 260.0625 C-137.94973268 259.31503501 -137.94973268 259.31503501 -136.83357239 257.21144104 C-135.93709541 254.83311613 -135.74063048 253.0887055 -135.7253418 250.55444336 C-135.71580978 249.68351547 -135.70627777 248.81258759 -135.69645691 247.91526794 C-135.69736832 246.98287796 -135.69827972 246.05048798 -135.69921875 245.08984375 C-135.69279106 243.644067 -135.69279106 243.644067 -135.68623352 242.16908264 C-135.68049668 240.13413274 -135.6799852 238.09916234 -135.68432617 236.06420898 C-135.68749193 232.94544737 -135.66399872 229.82762913 -135.63867188 226.70898438 C-135.63639946 224.73177203 -135.63569512 222.75455713 -135.63671875 220.77734375 C-135.627509 219.84292953 -135.61829926 218.90851532 -135.60881042 217.94578552 C-135.61815361 216.64412193 -135.61815361 216.64412193 -135.62768555 215.31616211 C-135.62705612 214.55323349 -135.6264267 213.79030487 -135.6257782 213.0042572 C-136.09861085 210.47185998 -137.16151723 209.73952714 -139 208 C-139.875 204.5 -139.875 204.5 -140 201 C-138.91821289 199.30615234 -138.91821289 199.30615234 -137 198 C-134.02905273 197.61181641 -134.02905273 197.61181641 -130.43359375 197.6015625 C-128.4990332 197.59576172 -128.4990332 197.59576172 -126.52539062 197.58984375 C-125.85483643 197.59612793 -125.18428223 197.60241211 -124.4934082 197.60888672 C-122.44089523 197.62497339 -120.39034315 197.60901866 -118.33789062 197.58984375 C-116.40526367 197.59564453 -116.40526367 197.59564453 -114.43359375 197.6015625 C-112.65553345 197.60663818 -112.65553345 197.60663818 -110.84155273 197.61181641 C-109.90384033 197.73991699 -108.96612793 197.86801758 -108 198 C-105.67420899 201.48868651 -105.58134543 202.89718519 -106 207 C-107.375 209.375 -107.375 209.375 -109 211 C-109.66 211 -110.32 211 -111 211 C-111 220.24 -111 229.48 -111 239 C-108.88078125 238.4946875 -106.7615625 237.989375 -104.578125 237.46875 C-102.51978276 236.98118659 -100.46108358 236.49515883 -98.40234375 236.00927734 C-96.97422878 235.67136357 -95.54648895 235.33186021 -94.11914062 234.99072266 C-92.06477399 234.50002088 -90.00911616 234.0150938 -87.953125 233.53125 C-86.71723633 233.23798828 -85.48134766 232.94472656 -84.20800781 232.64257812 C-81 232 -81 232 -77 232 C-77.09340698 226.76693114 -77.19947109 221.534332 -77.31738281 216.30175781 C-77.35571565 214.52090527 -77.39056089 212.73997416 -77.421875 210.95898438 C-77.46743271 208.40205766 -77.52544107 205.8456739 -77.5859375 203.2890625 C-77.59748871 202.49005524 -77.60903992 201.69104797 -77.62094116 200.86782837 C-77.57258944 196.46542788 -77.57258944 196.46542788 -80 193 C-79.8125 190.9375 -79.8125 190.9375 -79 189 C-78.01 188.67 -77.02 188.34 -76 188 C-75.83177734 186.52853516 -75.83177734 186.52853516 -75.66015625 185.02734375 C-75.04422965 180.71585752 -73.78672896 176.69333264 -72.4375 172.5625 C-72.20353516 171.83095703 -71.96957031 171.09941406 -71.72851562 170.34570312 C-71.15732778 168.56219821 -70.57936877 166.78086417 -70 165 C-69.34 165 -68.68 165 -68 165 C-67.20723961 167.52049393 -66.41576535 170.04138014 -65.625 172.5625 C-65.40328125 173.26697266 -65.1815625 173.97144531 -64.953125 174.69726562 C-64.62441406 175.74624023 -64.62441406 175.74624023 -64.2890625 176.81640625 C-64.07024414 177.5139502 -63.85142578 178.21149414 -63.62597656 178.93017578 C-63.0267941 180.91140392 -62.49104029 182.90175035 -61.9609375 184.90234375 C-61.24255404 188.06801378 -61.24255404 188.06801378 -59 190 C-59 191.32 -59 192.64 -59 194 C-59.66 194.33 -60.32 194.66 -61 195 C-61.33 206.22 -61.66 217.44 -62 229 C-58.37 228.01 -54.74 227.02 -51 226 C-45.4375 225 -45.4375 225 -42.99609375 224.625 C-40.6199023 224.11049974 -40.6199023 224.11049974 -39 221 C-38.67650453 218.63258206 -38.67650453 218.63258206 -38.69360352 215.96533203 C-38.67761612 214.94061798 -38.66162872 213.91590393 -38.64515686 212.86013794 C-38.63979416 211.75387054 -38.63443146 210.64760315 -38.62890625 209.5078125 C-38.61987778 208.36972137 -38.6108493 207.23163025 -38.60154724 206.05905151 C-38.5870306 203.64990882 -38.57815451 201.24072657 -38.57446289 198.83154297 C-38.56256821 195.14613382 -38.51339446 191.46239933 -38.46289062 187.77734375 C-38.45342649 185.43750818 -38.44619141 183.09766232 -38.44140625 180.7578125 C-38.41210777 179.1044841 -38.41210777 179.1044841 -38.38221741 177.41775513 C-38.37092044 171.16007615 -38.37092044 171.16007615 -41.40991211 165.82763672 C-43.83194892 164.02141151 -43.83194892 164.02141151 -46 163 C-46.35592789 157.71074598 -45.13793882 153.79872294 -43.3125 148.9375 C-42.90257812 147.80779785 -42.90257812 147.80779785 -42.484375 146.65527344 C-40.9013992 142.32049669 -39.21871815 138.03279929 -37.5 133.75 C-34.92080459 127.16517313 -33.05496251 120.41857201 -31.17333984 113.60986328 C-29.85046474 108.85321571 -28.42461714 104.22896753 -26.625 99.625 C-24.85433454 94.9007455 -23.75127218 90.85583494 -25.87109375 86.0078125 C-26.55371342 84.68258017 -27.26998313 83.37382788 -28.02734375 82.08984375 C-31.0979958 75.49225801 -30.18611593 67.53460433 -30.18530273 60.41259766 C-30.1875078 58.24231884 -30.20575306 56.0725341 -30.22460938 53.90234375 C-30.22754036 52.52343923 -30.22952713 51.14453231 -30.23046875 49.765625 C-30.23457764 48.51555664 -30.23868652 47.26548828 -30.24291992 45.97753906 C-30 43 -30 43 -28 41 C-26.0625 41 -26.0625 41 -24 42 C-20.1559829 47.53538462 -19.35712081 54.51277002 -18 61 C-14.72226496 60.24849977 -14.72226496 60.24849977 -13 57 C-12.38681549 55.11656043 -12.38681549 55.11656043 -11.95703125 53.01953125 C-11.77366211 52.20009033 -11.59029297 51.38064941 -11.40136719 50.53637695 C-11.20704102 49.63749756 -11.01271484 48.73861816 -10.8125 47.8125 C-10.60399414 46.87301514 -10.39548828 45.93353027 -10.18066406 44.96557617 C-9.44618979 41.64533914 -8.72249828 38.32286343 -8 35 C-7.70047598 33.62627637 -7.40082891 32.25257957 -7.10107422 30.87890625 C-6.94567673 30.16668411 -6.79027924 29.45446198 -6.63017273 28.72065735 C-6.31192601 27.26245423 -5.993577 25.80427344 -5.67512512 24.34611511 C-4.88796883 20.74096498 -4.10309848 17.13535409 -3.32348633 13.52856445 C-3.03338076 12.19221682 -2.74326097 10.85587228 -2.453125 9.51953125 C-2.19692383 8.33464111 -1.94072266 7.14975098 -1.67675781 5.92895508 C-1 3 -1 3 0 0 Z " fill="#FBFBFB" transform="translate(375,249)"/>
<path d="M0 0 C7.14763375 0.16249866 14.29139284 0.25454782 21.44050503 0.28091431 C26.98653425 0.30284363 32.53119242 0.36548858 38.07652378 0.45582581 C41.34990967 0.50727442 44.6200325 0.53311317 47.89387512 0.5196991 C63.61982798 0.46816704 74.04708137 1.58855746 85.60707092 12.77156067 C87.63206961 14.70383986 89.82336323 16.36372119 92.0655365 18.03538513 C93.42070762 19.09660369 94.77490141 20.15907169 96.1280365 21.22288513 C102.73032996 26.39579366 109.39949204 31.46530274 116.17881775 36.40452576 C119.05900778 38.53038031 121.12316004 40.21557044 123.1280365 43.22288513 C117.24995668 48.77440497 110.98633621 53.64276949 104.49620056 58.43992615 C99.51527345 62.13867441 94.67582054 65.97785086 89.8780365 69.91038513 C89.20683777 70.45098572 88.53563904 70.9915863 87.84410095 71.54856873 C84.8414402 73.96941559 81.90172927 76.40307311 79.088974 79.04319763 C73.72762142 83.75468929 70.01222805 85.70247812 62.80821228 85.51487732 C62.04575762 85.50004177 61.28330296 85.48520622 60.49774361 85.46992111 C57.70693186 85.40852705 54.9179748 85.3157675 52.1280365 85.22288513 C49.76817804 85.15603218 47.40829226 85.09013929 45.04838562 85.02500916 C39.49903772 84.86699343 33.95011893 84.6983473 28.40126038 84.52409363 C-13.00637744 83.23145633 -54.38406219 82.89856139 -95.80971754 82.96174002 C-102.08317347 82.9712932 -108.35661869 82.97589077 -114.63008118 82.97825623 C-163.29201497 83.00017413 -211.94030418 83.19540546 -260.57765198 84.91801453 C-269.02664286 85.21086846 -277.4028894 85.22288513 -285.8719635 85.22288513 C-285.8719635 63.77288513 -285.8719635 42.32288513 -285.8719635 20.22288513 C-286.8619635 19.89288513 -287.8519635 19.56288513 -288.8719635 19.22288513 C-288.3769635 17.73788513 -288.3769635 17.73788513 -287.8719635 16.22288513 C-287.2119635 16.22288513 -286.5519635 16.22288513 -285.8719635 16.22288513 C-285.9338385 15.12976013 -285.9957135 14.03663513 -286.0594635 12.91038513 C-285.8719635 9.22288513 -285.8719635 9.22288513 -284.69351196 7.59431458 C-277.49675794 2.17593534 -265.78608626 2.6426989 -257.18836975 2.30882263 C-255.88608932 2.24907761 -254.5838089 2.18933258 -253.24206543 2.1277771 C-249.71132873 1.96741033 -246.18010971 1.82395833 -242.64845276 1.68550491 C-240.40698387 1.59679761 -238.16571327 1.50407224 -235.92445374 1.41023254 C-157.40952062 -1.86415217 -78.55867426 -1.85897937 0 0 Z " fill="#F8F8F9" transform="translate(609.8719635009766,512.7771148681641)"/>
<path d="M0 0 C0.66 0 1.32 0 2 0 C2.30292969 1.24652344 2.60585938 2.49304688 2.91796875 3.77734375 C4.90647102 11.8846232 6.92483874 19.95625157 9.375 27.9375 C12.1024522 36.87808832 14.1867728 45.96557595 16.33886719 55.05834961 C18.3012457 63.28340027 20.47752468 71.40715492 22.86645508 79.51708984 C24.89714947 86.47148536 26.6053332 93.47930033 28.2421875 100.53564453 C29.43764607 105.68135623 30.7242213 110.78125927 32.125 115.875 C34.89642494 126.10795364 37.07238736 136.42521588 38 147 C39.32 147.33 40.64 147.66 42 148 C42.10546143 147.45698242 42.21092285 146.91396484 42.31958008 146.35449219 C43.51385362 140.22954725 44.74684025 134.11314754 46 128 C46.13841309 127.30938477 46.27682617 126.61876953 46.41943359 125.90722656 C46.7613118 124.22599019 47.12934239 122.55012667 47.5 120.875 C47.6959375 119.96492188 47.891875 119.05484375 48.09375 118.1171875 C49 116 49 116 51.09375 114.6953125 C51.7228125 114.46585937 52.351875 114.23640625 53 114 C55.74208984 121.39904689 57.85291093 128.90947795 59.75 136.5625 C59.97260498 137.42383545 60.19520996 138.2851709 60.42456055 139.17260742 C62.03924741 145.87016892 62 150.77056646 62 158 C75.86 158 89.72 158 104 158 C103.9175 152.6375 103.835 147.275 103.75 141.75 C103.73420898 140.06358398 103.71841797 138.37716797 103.70214844 136.63964844 C103.67277113 135.29618924 103.64194396 133.95276062 103.609375 132.609375 C103.60768311 131.57127686 103.60768311 131.57127686 103.60595703 130.51220703 C103.5038517 127.06303926 103.32605979 125.36533266 100.98925781 122.74707031 C100.33280273 122.17053711 99.67634766 121.59400391 99 121 C98.26915717 115.04885125 98.26915717 115.04885125 100.17602539 112.31225586 C104.10311625 109.48691609 109.78558024 110.53380055 114.4375 110.5625 C115.58283203 110.54251953 116.72816406 110.52253906 117.90820312 110.50195312 C119.00970703 110.50259766 120.11121094 110.50324219 121.24609375 110.50390625 C122.75707642 110.50112671 122.75707642 110.50112671 124.29858398 110.49829102 C127.71459869 111.1327158 128.89483396 112.28422205 131 115 C131.5 118 131.5 118 131 121 C130.33991943 121.56315918 129.67983887 122.12631836 128.99975586 122.70654297 C126.24222024 125.86907374 126.44093251 128.69530866 126.50390625 132.6953125 C126.50245102 133.44279755 126.50099579 134.19028259 126.49949646 134.9604187 C126.50115422 136.54233698 126.51270204 138.12427158 126.53344727 139.70605469 C126.56215678 142.09642329 126.55410391 144.4845366 126.54101562 146.875 C126.5540911 155.00922355 126.85804328 162.35636739 130 170 C130.73114014 170.00410889 131.46228027 170.00821777 132.21557617 170.01245117 C135.54036307 170.04542209 138.86332616 170.11607147 142.1875 170.1875 C143.33798828 170.19330078 144.48847656 170.19910156 145.67382812 170.20507812 C146.78564453 170.23408203 147.89746094 170.26308594 149.04296875 170.29296875 C150.57473755 170.31653442 150.57473755 170.31653442 152.13745117 170.34057617 C156.10708503 171.25503085 157.49177248 172.81716032 160 176 C161.20503213 178.63824132 162.18838785 181.0982169 163.09375 183.83203125 C163.36219223 184.60433578 163.63063446 185.37664032 163.9072113 186.17234802 C164.78608297 188.71430875 165.64329736 191.26299088 166.5 193.8125 C167.11177952 195.59830135 167.72450635 197.38377843 168.33813477 199.16894531 C173.24211468 213.49982851 177.93861057 227.90106144 182.56713867 242.32299805 C185.59363915 251.74646902 188.66801835 261.14002948 192.17358398 270.39941406 C193.64166645 274.3924459 194.56138599 277.74333701 194 282 C192.90625 283.63647461 192.90625 283.63647461 191 285 C187.90551758 285.43237305 187.90551758 285.43237305 184.14453125 285.51171875 C182.93385986 285.54483154 181.72318848 285.57794434 180.47583008 285.61206055 C178.93693115 285.63695557 177.39803223 285.66185059 175.8125 285.6875 C170.924375 285.790625 166.03625 285.89375 161 286 C161 304.81 161 323.62 161 343 C158.22530046 341.61265023 157.9109673 340.03233533 156.62890625 337.21875 C156.14647461 336.16945313 155.66404297 335.12015625 155.16699219 334.0390625 C154.63750977 332.87117188 154.10802734 331.70328125 153.5625 330.5 C152.99840119 329.26791768 152.43360292 328.03615541 151.86816406 326.8046875 C150.94263701 324.78832342 150.0178181 322.77165198 149.0953064 320.75390625 C146.49443704 315.06583068 143.86664828 309.39053712 141.23046875 303.71875 C140.81942398 302.83401001 140.40837921 301.94927002 139.98487854 301.03771973 C138.34310463 297.50408725 136.70118033 293.97052484 135.05862427 290.43725586 C133.89726452 287.93788872 132.73722406 285.43791632 131.578125 282.9375 C131.20324448 282.12897583 130.82836395 281.32045166 130.44212341 280.48742676 C127.19920434 273.4726287 124.03227538 266.4243117 120.90509033 259.35717773 C120.55323669 258.56770752 120.20138306 257.7782373 119.83886719 256.96484375 C119.53116394 256.2699585 119.22346069 255.57507324 118.90643311 254.85913086 C117.92786531 252.74668048 117.92786531 252.74668048 116 250 C110.29658598 261.21770127 104.90802503 272.55048499 99.6875 284 C98.93752307 285.63920106 98.1872754 287.27827827 97.43676758 288.91723633 C95.61273378 292.9018609 93.79152332 296.88776766 91.97119141 300.87408447 C89.71448579 305.81396088 87.45070404 310.75059848 85.1875 315.6875 C84.76412354 316.61127441 84.34074707 317.53504883 83.90454102 318.48681641 C82.60357269 321.32479477 81.30192908 324.16246226 80 327 C79.49065918 328.11036621 78.98131836 329.22073242 78.45654297 330.36474609 C76.84795326 333.86905222 75.23680136 337.37217007 73.625 340.875 C73.13668701 341.93936279 72.64837402 343.00372559 72.14526367 344.1003418 C63.81201071 362.18798929 63.81201071 362.18798929 62 364 C53.30004535 364.38615987 44.64648883 364.00665982 36 363 C37.34161169 357.70884776 39.23887799 353.14784753 41.75 348.3125 C42.76876125 346.31776546 43.78603014 344.32276962 44.79003906 342.32055664 C45.67255685 340.6279958 46.60953386 338.96350938 47.57714844 337.31811523 C52.09654177 329.25862008 52.8369087 322.58705478 52.75 313.4375 C52.75763624 310.95699379 52.77288401 308.47649569 52.796875 305.99609375 C52.79010742 304.91513428 52.78333984 303.8341748 52.77636719 302.72045898 C53 300 53 300 55 297 C54.6878236 294.35367713 54.6878236 294.35367713 54 292 C50.52085059 291.97112186 47.04173169 291.95324313 43.5625 291.9375 C42.56927734 291.92912109 41.57605469 291.92074219 40.55273438 291.91210938 C39.60849609 291.90888672 38.66425781 291.90566406 37.69140625 291.90234375 C36.81685791 291.89710693 35.94230957 291.89187012 35.04125977 291.88647461 C33.00559794 291.77215191 33.00559794 291.77215191 32 293 C32.2366579 294.63954889 32.47733087 296.27861465 32.73779297 297.91455078 C33.19885516 301.58158357 33.10360497 305.24753834 33.0625 308.9375 C33.05798828 309.71673828 33.05347656 310.49597656 33.04882812 311.29882812 C33.03716908 313.19925268 33.01923877 315.09963706 33 317 C24.07263952 317.06951349 15.14537222 317.12281799 6.21780014 317.15543652 C2.07234894 317.17109187 -2.07291709 317.19232757 -6.21826172 317.22631836 C-10.21883718 317.25891675 -14.21923453 317.276854 -18.21993256 317.28463173 C-19.74617059 317.2901744 -21.27239889 317.30099794 -22.7985611 317.31719017 C-24.93655963 317.33897148 -27.07382241 317.34196673 -29.21191406 317.34057617 C-31.03725677 317.35056892 -31.03725677 317.35056892 -32.8994751 317.36076355 C-36.27048314 316.96852776 -37.66723351 316.4346006 -40 314 C-40.49437653 311.33163438 -40.6995973 309.06304795 -40.75 306.375 C-40.77892334 305.5811792 -40.80784668 304.7873584 -40.83764648 303.96948242 C-41.26082593 289.99169805 -41.0813425 275.98215012 -41 262 C-30.31652009 261.89946052 -19.66891273 261.88847367 -9 262.5 C-0.70005605 262.94169292 7.60001494 263.19982487 15.91088867 263.28710938 C17.89848992 263.31201126 19.8858074 263.35697749 21.87304688 263.40234375 C30.68314963 263.52907226 30.68314963 263.52907226 38 259 C39.16710684 258.08244404 40.33935365 257.17140258 41.515625 256.265625 C42.762379 255.26285157 44.00710569 254.25755338 45.25 253.25 C46.24169189 252.45166748 46.24169189 252.45166748 47.25341797 251.63720703 C49.1706712 250.09359633 51.08561082 248.5471603 53 247 C58.37177947 242.66890715 63.77470988 238.38715274 69.25 234.1875 C70.91340051 232.9090515 72.57662332 231.6303723 74.23974609 230.3515625 C75.45248048 229.42039779 76.66642029 228.49080162 77.88134766 227.5625 C79.77959953 226.10995824 81.67150374 224.64946965 83.5625 223.1875 C84.14612305 222.74365967 84.72974609 222.29981934 85.33105469 221.8425293 C89.88764248 218.30272825 93.62244241 215.3492472 94.5625 209.5 C93.48888902 202.8197539 86.50733757 198.8313977 81.4375 194.75 C80.36761841 193.88532104 80.36761841 193.88532104 79.27612305 193.00317383 C74.41675236 189.09418192 69.48936364 185.29544467 64.47265625 181.58984375 C61.58044941 179.44750114 58.72455169 177.26006335 55.87109375 175.06640625 C54.94707764 174.35718018 54.02306152 173.6479541 53.07104492 172.91723633 C51.23193058 171.50435723 49.39475541 170.08894926 47.55981445 168.6706543 C45.05911137 166.75314412 42.5335829 164.87373085 40 163 C39.35224609 162.48501953 38.70449219 161.97003906 38.03710938 161.43945312 C32.09151008 157.1000995 26.17824055 157.14207304 19 157 C17.37692542 156.95409418 15.75387993 156.9071525 14.13085938 156.859375 C7.71411209 156.68363899 1.29646672 156.56452507 -5.12158203 156.44775391 C-7.87802723 156.39629774 -10.63430683 156.33905672 -13.390625 156.28125 C-14.24150696 156.26767456 -15.09238892 156.25409912 -15.96905518 156.2401123 C-21.88691656 156.11308344 -21.88691656 156.11308344 -23 155 C-23.32114519 149.98880608 -23.29345578 144.95816732 -23.3125 139.9375 C-23.31644775 139.19402313 -23.32039551 138.45054626 -23.32446289 137.68453979 C-23.35378923 125.85598564 -22.25525273 114.67716243 -19.875 103.06640625 C-18.72980697 97.11105928 -17.70016511 90.89805955 -20.2421875 85.23046875 C-20.78101563 84.55628906 -21.31984375 83.88210938 -21.875 83.1875 C-26.27091467 77.52802532 -27.30011402 73.03046126 -27.23046875 65.890625 C-27.23001053 65.12320984 -27.22955231 64.35579468 -27.2290802 63.56512451 C-27.22607059 61.95144087 -27.21822315 60.3377598 -27.20581055 58.72412109 C-27.18745828 56.24436259 -27.18530169 53.76497584 -27.18554688 51.28515625 C-27.18063483 49.71614258 -27.17480788 48.14713145 -27.16796875 46.578125 C-27.16685593 45.83338928 -27.1657431 45.08865356 -27.16459656 44.3213501 C-27.11608196 39.11608196 -27.11608196 39.11608196 -26 38 C-24.33382885 37.95936168 -22.66611905 37.957279 -21 38 C-17.47273643 43.87877262 -16.39139068 50.34895518 -15 57 C-12.99162431 56.30684996 -12.99162431 56.30684996 -11 55 C-10.08768241 53.02860787 -10.08768241 53.02860787 -9.7265625 50.64453125 C-9.54440186 49.72607422 -9.36224121 48.80761719 -9.17456055 47.86132812 C-8.99320557 46.85521484 -8.81185059 45.84910156 -8.625 44.8125 C-8.42366455 43.77416016 -8.2223291 42.73582031 -8.01489258 41.66601562 C-7.57267249 39.37592935 -7.13827758 37.0843224 -6.71044922 34.79150391 C-5.9427005 30.69420578 -5.14828681 26.60268731 -4.34765625 22.51171875 C-2.88195144 15.01093759 -1.43573806 7.50658282 0 0 Z " fill="#FBFBFB" transform="translate(652,346)"/>
<path d="M0 0 C9.24 0 18.48 0 28 0 C28 81.84 28 163.68 28 248 C18.76 248 9.52 248 0 248 C0 166.16 0 84.32 0 0 Z " fill="#F9F9F9" transform="translate(493,607)"/>
<path d="M0 0 C8.25 0 16.5 0 25 0 C25 2.97 25 5.94 25 9 C28.465 8.505 28.465 8.505 32 8 C32.33 5.69 32.66 3.38 33 1 C37.95 1 42.9 1 48 1 C48.59526792 23.42175826 44.77414934 43.27677839 38.04199219 64.62890625 C36.37744844 70.01410308 34.87494165 75.44208408 33.375 80.875 C32.80633655 82.9206694 32.23733114 84.96624377 31.66796875 87.01171875 C31.39259277 88.00220215 31.1172168 88.99268555 30.83349609 90.01318359 C29.46724545 94.90911516 28.08037514 99.7990854 26.6875 104.6875 C26.32374268 105.97019775 26.32374268 105.97019775 25.95263672 107.27880859 C24.73169077 111.55600227 23.44783447 115.7924435 22 120 C23.66342837 121.66342837 25.7825709 121.36048097 28.0625 121.5625 C29.44115234 121.68818359 29.44115234 121.68818359 30.84765625 121.81640625 C31.55792969 121.87699219 32.26820313 121.93757812 33 122 C34.72577473 127.2851851 35 130.03527231 35 136 C23.45 136 11.9 136 0 136 C0 91.12 0 46.24 0 0 Z " fill="#FCFCFC" transform="translate(534,607)"/>
<path d="M0 0 C4.44476141 2.56492811 8.11092399 5.61887327 10.703125 10.07421875 C11.10110776 14.11090103 10.99737616 18.03316954 10.703125 22.07421875 C11.71375 22.01234375 12.724375 21.95046875 13.765625 21.88671875 C20.2067112 22.19343714 25.04551446 24.67536436 29.703125 29.07421875 C33.99490423 35.20533194 34.03262768 40.46990448 33.40625 47.796875 C32.31270004 52.89403286 29.7460822 55.89943341 25.703125 59.07421875 C22.765625 60.57421875 22.765625 60.57421875 20.703125 61.07421875 C20.991875 61.59628906 21.280625 62.11835938 21.578125 62.65625 C24.67970206 68.8055573 25.74250552 74.21430732 24.703125 81.07421875 C22.40537151 85.76962806 18.69298801 87.37887764 14.03125 89.29296875 C10.89651882 90.34489196 7.99343265 90.79419257 4.703125 91.07421875 C4.68894531 90.33816406 4.67476562 89.60210937 4.66015625 88.84375 C4.37430821 82.70351793 4.37430821 82.70351793 1.890625 77.19921875 C-2.01396702 74.5961574 -6.06516555 73.03616408 -10.41796875 71.31640625 C-15.92729709 68.93924694 -19.7768352 65.53347602 -22.6015625 60.09765625 C-23.97629689 56.0970247 -23.96974211 52.22127728 -23.296875 48.07421875 C-20.88593335 43.15960692 -17.48140839 40.42184546 -13.296875 37.07421875 C-12.966875 36.41421875 -12.636875 35.75421875 -12.296875 35.07421875 C-13.163125 35.01234375 -14.029375 34.95046875 -14.921875 34.88671875 C-20.16491717 33.6245049 -23.08042408 30.77725003 -26.171875 26.44921875 C-28.12190846 20.59911837 -28.604023 13.9819396 -25.921875 8.26171875 C-20.17032689 -0.09316167 -9.46034075 -3.81309653 0 0 Z " fill="#FBFBFB" transform="translate(757.296875,353.92578125)"/>
<path d="M0 0 C4.40154692 3.06961589 7.55038009 6.17720266 10 11 C10.36749268 14.10015869 10.36749268 14.10015869 10.35644531 17.61035156 C10.35944641 18.92811584 10.36244751 20.24588013 10.36553955 21.60357666 C10.35353738 23.03259679 10.34105458 24.46161296 10.328125 25.890625 C10.32506568 27.36081753 10.32319087 28.83101297 10.32244873 30.3012085 C10.31785597 33.37442199 10.30346503 36.44737193 10.28125 39.52050781 C10.25286864 43.46735497 10.24202748 47.41399568 10.2375679 51.36093521 C10.2334213 54.39257891 10.22361184 57.4241806 10.21169281 60.45580292 C10.20598263 61.9119203 10.2012264 63.36804173 10.19742584 64.82416534 C10.19058507 66.85187697 10.17605893 68.87955834 10.16113281 70.90722656 C10.15430481 72.06240784 10.14747681 73.21758911 10.14044189 74.40777588 C10 77 10 77 9 78 C5.90918535 78.1011692 2.84117445 78.13968558 -0.25 78.1328125 C-1.17844727 78.13376923 -2.10689453 78.13472595 -3.06347656 78.13571167 C-5.03059965 78.13639355 -6.99772496 78.13453872 -8.96484375 78.13037109 C-11.98703026 78.12502295 -15.00906815 78.13031582 -18.03125 78.13671875 C-19.93750033 78.13605797 -21.84375057 78.13477681 -23.75 78.1328125 C-25.11560059 78.13584885 -25.11560059 78.13584885 -26.50878906 78.13894653 C-32.88505031 78.11494969 -32.88505031 78.11494969 -34 77 C-34.11493353 75.11520927 -34.15966336 73.22610279 -34.17700195 71.33789062 C-34.18983719 70.12572876 -34.20267242 68.91356689 -34.21589661 67.66467285 C-34.22406865 66.32853606 -34.23151148 64.99239463 -34.23828125 63.65625 C-34.24235678 62.98438156 -34.2464323 62.31251312 -34.25063133 61.62028503 C-34.27152656 58.05675563 -34.2858071 54.49326499 -34.29516602 50.9296875 C-34.30617272 47.2657667 -34.34049437 43.60246301 -34.38033772 39.93875885 C-34.40663658 37.10924236 -34.41487002 34.27986901 -34.41844749 31.45024109 C-34.42562773 29.44903884 -34.45202243 27.4479349 -34.47883606 25.44689941 C-34.45883713 16.98828193 -33.59140704 10.27684457 -28.03515625 3.66015625 C-19.26210732 -3.44514476 -10.39665038 -5.67475011 0 0 Z " fill="#FAFAFB" transform="translate(279,704)"/>
<path d="M0 0 C6.36437358 3.58354368 10.74926694 7.84545707 13.1015625 14.90234375 C13.19526418 16.83944194 13.22949202 18.77963155 13.23095703 20.71899414 C13.23410919 21.91355728 13.23726135 23.10812042 13.24050903 24.33888245 C13.2384848 25.62955124 13.23646057 26.92022003 13.234375 28.25 C13.23504861 29.58613604 13.23601912 30.92227197 13.23727417 32.25840759 C13.23874794 35.0568051 13.23660655 37.85517066 13.23193359 40.65356445 C13.22623096 44.24387937 13.22952069 47.83411961 13.23550606 51.4244318 C13.23911562 54.18245509 13.23797136 56.9404606 13.23537827 59.69848442 C13.23438522 61.66724064 13.23742616 63.63599754 13.24050903 65.60475159 C13.23578079 67.39186806 13.23578079 67.39186806 13.23095703 69.21508789 C13.23016144 70.26749161 13.22936584 71.31989532 13.22854614 72.40419006 C13.1015625 74.90234375 13.1015625 74.90234375 12.1015625 76.90234375 C-2.0884375 76.90234375 -16.2784375 76.90234375 -30.8984375 76.90234375 C-30.98245216 68.81593308 -31.06257289 60.73111411 -31.10543823 52.64464569 C-31.12651155 48.87854735 -31.15464517 45.11281243 -31.20019531 41.34692383 C-31.24383658 37.71589651 -31.26761276 34.08522035 -31.27794647 30.45395088 C-31.2853053 29.07251016 -31.29967537 27.69108744 -31.32135773 26.30979729 C-31.45516618 17.42765009 -31.30934416 11.67115293 -25.1171875 4.9765625 C-24.55 4.51894531 -23.9828125 4.06132813 -23.3984375 3.58984375 C-22.83125 3.11933594 -22.2640625 2.64882813 -21.6796875 2.1640625 C-15.26516994 -2.3795541 -7.3446665 -2.78147074 0 0 Z " fill="#FBFBFB" transform="translate(775.8984375,716.09765625)"/>
<path d="M0 0 C5.86713911 3.01343079 9.34363916 7.04975171 12 13 C12.75 16.4375 12.75 16.4375 13 19 C13.59167969 19.14695312 14.18335938 19.29390625 14.79296875 19.4453125 C20.57567898 21.08673433 23.6417959 22.76515243 27 28 C30.27658708 33.95161324 30.62312756 39.41915628 29 46 C26.71179533 50.41296615 24.01147713 53.10282207 20 56 C20.2165625 56.58007812 20.433125 57.16015625 20.65625 57.7578125 C23.7219596 66.35883111 23.7219596 66.35883111 23 71 C20.72874308 75.29015196 18.53674223 78.11891176 14 80 C11.1875 79.6875 11.1875 79.6875 9 79 C8.79375 77.783125 8.5875 76.56625 8.375 75.3125 C7.21133443 70.49526679 4.99307785 68.77779328 1 66 C1 69.3 1 72.6 1 76 C0.34 76 -0.32 76 -1 76 C-0.979375 75.21496094 -0.95875 74.42992187 -0.9375 73.62109375 C-0.93660815 67.29425427 -0.93660815 67.29425427 -3.7421875 61.85546875 C-5.15657808 60.70789544 -6.5944492 59.58863644 -8.0546875 58.5 C-11.44927957 55.88248322 -12.71184584 53.02072665 -13.30859375 48.8359375 C-13.61553765 43.27374205 -12.36961832 40.52792462 -9 36 C-9 31.64740675 -9.05831146 31.51092703 -11.875 28.6875 C-15.87167772 24.25722045 -17.01674037 19.82639265 -17.375 13.9375 C-16.83856609 8.30494391 -14.54780163 5.63379061 -10.75 1.625 C-7.08734869 -0.53929396 -4.07976946 -0.98425377 0 0 Z " fill="#F9F9F9" transform="translate(241,350)"/>
<path d="M0 0 C8.91 0 17.82 0 27 0 C27 26.4 27 52.8 27 80 C18.09 80 9.18 80 0 80 C0 53.6 0 27.2 0 0 Z " fill="#FDFDFE" transform="translate(494,420)"/>
<path d="M0 0 C4.21290727 3.89665686 6.51483157 8.07691679 7.125 13.8125 C7.29266697 22.19584866 6.29551802 29.2376624 0.8125 35.875 C-3.65161872 40.06355584 -7.7252523 41.23621131 -13.8125 41.4375 C-20.51796855 41.15842848 -23.78396407 39.41588084 -28.375 34.5625 C-33.50962473 26.94909091 -34.17426339 20.46403296 -32.82421875 11.44921875 C-31.13154432 4.78215415 -26.78233416 0.67599652 -21.1875 -3.125 C-13.87125265 -5.61417438 -6.32441598 -4.21627732 0 0 Z " fill="#090909" transform="translate(417.1875,537.125)"/>
<path d="M0 0 C22.38337802 0 22.38337802 0 29.63671875 6.45703125 C34.21574858 11.42967396 35.48990944 16.99835071 35.3125 23.5625 C34.5640757 29.40020955 32.56014439 35.04858116 28.0625 39 C18.62344342 45.16428185 14.43489476 43 1 43 C0.67 28.81 0.34 14.62 0 0 Z " fill="#080808" transform="translate(619,534)"/>
<path d="M0 0 C3 1 3 1 4.16796875 3.21484375 C4.50441406 4.11332031 4.84085938 5.01179688 5.1875 5.9375 C5.53167969 6.83339844 5.87585938 7.72929687 6.23046875 8.65234375 C7 11 7 11 7 13 C9.64 13.33 12.28 13.66 15 14 C15.1875 16.375 15.1875 16.375 15 19 C14.01 19.66 13.02 20.32 12 21 C11.52573374 22.96990241 11.52573374 22.96990241 11.56762695 25.26611328 C11.54783279 26.14687531 11.52803864 27.02763733 11.50764465 27.93508911 C11.49805977 29.36327469 11.49805977 29.36327469 11.48828125 30.8203125 C11.47033005 31.79410858 11.45237885 32.76790466 11.43388367 33.77120972 C11.37959368 36.88909542 11.34582509 40.00682645 11.3125 43.125 C11.27934343 45.2356987 11.24485534 47.34637694 11.20898438 49.45703125 C11.1213433 54.6380454 11.0614342 59.81834287 11 65 C4.07 65 -2.86 65 -10 65 C-10.02578125 61.85855469 -10.0515625 58.71710938 -10.078125 55.48046875 C-10.11652359 52.44220975 -10.1616909 49.40412172 -10.20751953 46.3659668 C-10.23576695 44.25244288 -10.25696264 42.13881257 -10.27099609 40.02514648 C-10.29237334 36.988865 -10.33899669 33.95386771 -10.390625 30.91796875 C-10.39185364 29.97100632 -10.39308228 29.02404388 -10.39434814 28.04838562 C-10.34278636 22.94678946 -10.34278636 22.94678946 -13.03808594 18.88012695 C-13.68551758 18.58968506 -14.33294922 18.29924316 -15 18 C-14.64448048 13.44288609 -11.29781118 11.22189673 -8.0625 8.4375 C-3.64160057 4.58676559 -3.64160057 4.58676559 0 0 Z " fill="#F9F9FA" transform="translate(605,436)"/>
<path d="M0 0 C2.3916959 2.1350584 3.50164876 3.79160234 4.4296875 6.8515625 C4.66494141 7.61146484 4.90019531 8.37136719 5.14257812 9.15429688 C5.38427734 9.96962891 5.62597656 10.78496094 5.875 11.625 C6.13474609 12.47384766 6.39449219 13.32269531 6.66210938 14.19726562 C8.52108504 20.30143265 10.32129238 26.42418117 12.09399414 32.55395508 C13.22222629 36.43654824 14.40424687 40.29613875 15.64453125 44.14453125 C15.92167969 45.005625 16.19882812 45.86671875 16.484375 46.75390625 C17.0247808 48.42355625 17.57013111 50.09161631 18.12109375 51.7578125 C18.36601562 52.51449219 18.6109375 53.27117187 18.86328125 54.05078125 C19.19259644 55.05105347 19.19259644 55.05105347 19.52856445 56.0715332 C20 58 20 58 20 62 C7.46 62 -5.08 62 -18 62 C-15.66765317 52.67061268 -13.36721654 43.52054403 -10.5 34.375 C-9.88966917 32.40133699 -9.2802909 30.42737916 -8.671875 28.453125 C-8.38376953 27.51919922 -8.09566406 26.58527344 -7.79882812 25.62304688 C-6.73676532 22.1356377 -5.73745701 18.63427031 -4.75 15.125 C-3.31408596 10.02502943 -1.72711986 5.0086476 0 0 Z " fill="#F7F7F7" transform="translate(448,439)"/>
<path d="M0 0 C3.63294533 -0.95563906 6.39853016 -1.16385919 10 0 C14.89815371 5.54633044 18.45028348 12.05467845 21 19 C21.66 19 22.32 19 23 19 C23.24878906 18.49984375 23.49757813 17.9996875 23.75390625 17.484375 C24.16511719 16.66453125 24.57632813 15.8446875 25 15 C25.27440918 14.42701172 25.54881836 13.85402344 25.83154297 13.26367188 C30.61653206 3.47136587 30.61653206 3.47136587 34 0 C37.94003291 -1.27114172 41.01826538 -1.00473677 45 0 C44.34 0.99 43.68 1.98 43 3 C42.70655144 5.92326237 42.70655144 5.92326237 42.76953125 9.25 C42.77146484 10.49910156 42.77339844 11.74820313 42.77539062 13.03515625 C42.78763672 14.34355469 42.79988281 15.65195312 42.8125 17 C42.81314453 18.27746094 42.81378906 19.55492187 42.81445312 20.87109375 C42.84871694 28.31014918 43.20839362 35.60322998 44 43 C40.04 43 36.08 43 32 43 C31.67 35.74 31.34 28.48 31 21 C29.741875 22.815 28.48375 24.63 27.1875 26.5 C25.04296875 29.59375 25.04296875 29.59375 23 32 C22.01 32 21.02 32 20 32 C17.37448284 28.85162825 15.26785804 25.42318195 13 22 C12.67 28.93 12.34 35.86 12 43 C8.37 43 4.74 43 1 43 C1.00523682 41.8039917 1.01047363 40.6079834 1.01586914 39.37573242 C1.03395712 34.94214627 1.04544595 30.50856339 1.05493164 26.07495117 C1.05996315 24.15534924 1.06678898 22.23575114 1.07543945 20.31616211 C1.08755669 17.55842136 1.09324011 14.80073124 1.09765625 12.04296875 C1.10281754 11.18350143 1.10797882 10.32403412 1.11329651 9.43852234 C1.11337204 8.63791885 1.11344757 7.83731537 1.11352539 7.01245117 C1.115746 6.3085173 1.11796661 5.60458344 1.12025452 4.87931824 C1.06559534 2.77178344 1.06559534 2.77178344 0 0 Z " fill="#090908" transform="translate(497,534)"/>
<path d="M0 0 C0.66 0 1.32 0 2 0 C4.67667096 5.42241483 7.34568382 10.848507 10.0078125 16.27807617 C10.91361757 18.12284526 11.82147032 19.96661043 12.73144531 21.80932617 C14.04257229 24.46529072 15.34617966 27.12483399 16.6484375 29.78515625 C17.25635635 31.01057884 17.25635635 31.01057884 17.8765564 32.26075745 C18.44692123 33.43117836 18.44692123 33.43117836 19.02880859 34.62524414 C19.36190033 35.30253067 19.69499207 35.9798172 20.03817749 36.67762756 C21.28577497 39.69001911 22.10426578 42.86493023 23 46 C8.48 46 -6.04 46 -21 46 C-20.11198121 41.55990603 -19.07170505 38.80345353 -17.05078125 34.84375 C-16.75568161 34.26016724 -16.46058197 33.67658447 -16.15653992 33.07531738 C-15.21420882 31.21392721 -14.26387165 29.35678333 -13.3125 27.5 C-12.07617276 25.07456073 -10.84352556 22.64727998 -9.61328125 20.21875 C-9.3116507 19.62416992 -9.01002014 19.02958984 -8.69924927 18.41699219 C-5.63974885 12.35086018 -2.79931523 6.19048198 0 0 Z " fill="#F9F9F9" transform="translate(507,363)"/>
<path d="M0 0 C3.63 0 7.26 0 11 0 C10.67 5.94 10.34 11.88 10 18 C14.95 18 19.9 18 25 18 C25 12.06 25 6.12 25 0 C28.63 0 32.26 0 36 0 C36 14.19 36 28.38 36 43 C32.37 43 28.74 43 25 43 C25 37.39 25 31.78 25 26 C20.05 26 15.1 26 10 26 C10 31.61 10 37.22 10 43 C6.7 43 3.4 43 0 43 C0 28.81 0 14.62 0 0 Z " fill="#080807" transform="translate(343,534)"/>
<path d="M0 0 C2.97 0 5.94 0 9 0 C9.30703857 0.84071045 9.61407715 1.6814209 9.93041992 2.54760742 C11.09442262 5.73314945 12.25942167 8.91832368 13.42504883 12.10327148 C13.92478364 13.46934133 14.4241461 14.83554746 14.9230957 16.2019043 C18.1979008 25.16886811 21.54929734 34.09882733 25 43 C21.04 43 17.08 43 13 43 C11.515 38.545 11.515 38.545 10 34 C6.37 34 2.74 34 -1 34 C-2.32 36.97 -3.64 39.94 -5 43 C-8.3 43 -11.6 43 -15 43 C-13.07521251 37.1187049 -11.05708832 31.2735499 -9 25.4375 C-8.7510498 24.72988525 -8.50209961 24.02227051 -8.24560547 23.29321289 C-7.00298497 19.77733742 -5.73458576 16.27404816 -4.41796875 12.78515625 C-3.32024641 9.87544018 -2.28223838 6.95539316 -1.3125 4 C-0.879375 2.68 -0.44625 1.36 0 0 Z " fill="#090808" transform="translate(591,534)"/>
<path d="M0 0 C1.65018367 0.70770072 3.26026194 1.50765038 4.859375 2.32421875 C4.529375 4.96421875 4.199375 7.60421875 3.859375 10.32421875 C2.89515625 10.26621094 1.9309375 10.20820312 0.9375 10.1484375 C-0.32578125 10.10332031 -1.5890625 10.05820312 -2.890625 10.01171875 C-4.77007812 9.92470703 -4.77007812 9.92470703 -6.6875 9.8359375 C-10.23964922 10.0152069 -10.23964922 10.0152069 -12.5703125 12.46875 C-14.36300524 15.72859676 -14.6193046 17.62945482 -14.515625 21.32421875 C-14.50273437 22.33484375 -14.48984375 23.34546875 -14.4765625 24.38671875 C-14.12996157 27.4174618 -13.54053734 29.61834791 -12.140625 32.32421875 C-8.69611763 34.62055699 -6.20250217 34.8643836 -2.140625 35.32421875 C-2.140625 32.68421875 -2.140625 30.04421875 -2.140625 27.32421875 C-3.460625 27.32421875 -4.780625 27.32421875 -6.140625 27.32421875 C-6.140625 25.67421875 -6.140625 24.02421875 -6.140625 22.32421875 C-1.850625 22.32421875 2.439375 22.32421875 6.859375 22.32421875 C6.859375 28.92421875 6.859375 35.52421875 6.859375 42.32421875 C-0.17370412 44.66857846 -7.43179747 46.05202476 -14.62109375 43.4140625 C-20.17689563 40.17230943 -23.12226726 36.02286677 -25.390625 30.01171875 C-27.08239771 21.69383624 -26.48734138 14.78840519 -22.140625 7.32421875 C-16.15940064 0.59360666 -8.93404569 -2.82041953 0 0 Z " fill="#090909" transform="translate(453.140625,533.67578125)"/>
<path d="M0 0 C8.58 0 17.16 0 26 0 C26 2.97 26 5.94 26 9 C21.05 9 16.1 9 11 9 C11 11.64 11 14.28 11 17 C14.63 17 18.26 17 22 17 C22 19.64 22 22.28 22 25 C18.37 25 14.74 25 11 25 C11 28.3 11 31.6 11 35 C15.95 35 20.9 35 26 35 C26 37.64 26 40.28 26 43 C17.42 43 8.84 43 0 43 C0 28.81 0 14.62 0 0 Z " fill="#090909" transform="translate(658,534)"/>
<path d="M0 0 C8.58 0 17.16 0 26 0 C26 2.97 26 5.94 26 9 C21.05 9 16.1 9 11 9 C11 11.64 11 14.28 11 17 C14.63 17 18.26 17 22 17 C22 19.64 22 22.28 22 25 C18.04 25 14.08 25 10 25 C10 28.3 10 31.6 10 35 C15.28 35 20.56 35 26 35 C26 37.64 26 40.28 26 43 C17.42 43 8.84 43 0 43 C0 28.81 0 14.62 0 0 Z " fill="#090909" transform="translate(547,534)"/>
<path d="M0 0 C0 2.64 0 5.28 0 8 C-0.99 8.33 -1.98 8.66 -3 9 C-3.66 8.67 -4.32 8.34 -5 8 C-6.37342831 7.9310528 -7.75002102 7.91532292 -9.125 7.9375 C-10.40375 7.958125 -11.6825 7.97875 -13 8 C-13.33 9.32 -13.66 10.64 -14 12 C-12.77120566 12.77142672 -11.54194398 13.54210904 -10.3125 14.3125 C-9.58160156 14.77398438 -8.85070312 15.23546875 -8.09765625 15.7109375 C-6.51812533 16.68159896 -4.89301072 17.57865349 -3.25 18.4375 C-0.1738405 20.57372188 1.27694692 22.6815274 3 26 C3.72126715 30.95871166 2.92911914 34.36523098 0.2421875 38.48828125 C-1.96000075 41.1683028 -3.66339728 41.98710275 -7 43 C-13.65525432 43.64907013 -19.33043258 43.77971161 -25 40 C-24.34 37.03 -23.68 34.06 -23 31 C-21.68 31.66 -20.36 32.32 -19 33 C-16.40845081 33.24029959 -16.40845081 33.24029959 -13.75 33.125 C-12.41195313 33.09792969 -12.41195313 33.09792969 -11.046875 33.0703125 C-10.37140625 33.04710937 -9.6959375 33.02390625 -9 33 C-8.47151059 30.66812371 -8.47151059 30.66812371 -9 28 C-11.12049209 26.43004937 -12.99491931 25.25700227 -15.3125 24.0625 C-20.24163153 21.50447833 -22.97841992 19.35789406 -25 14 C-25.57679392 10.47514827 -25.70665389 8.19961175 -23.86328125 5.0703125 C-17.87792274 -2.50171585 -8.75674923 -4.37837461 0 0 Z " fill="#0B0B0B" transform="translate(490,535)"/>
<path d="M0 0 C0.66 0 1.32 0 2 0 C3.69712821 4.72997684 5.3875821 9.46226688 7.07202148 14.19677734 C7.64540851 15.80549592 8.22058173 17.41357907 8.79760742 19.02099609 C9.62894907 21.33784986 10.45374033 23.65694838 11.27734375 25.9765625 C11.53466782 26.68930328 11.79199188 27.40204407 12.05711365 28.13638306 C13.48029873 32.16732348 14.28747173 35.72483036 15 40 C5.76 40 -3.48 40 -13 40 C-9.625 26.5 -9.625 26.5 -7.51953125 20.703125 C-7.07802734 19.47851562 -6.63652344 18.25390625 -6.18164062 16.9921875 C-5.50391602 15.13980469 -5.50391602 15.13980469 -4.8125 13.25 C-4.34386039 11.95592483 -3.87575845 10.66165482 -3.40820312 9.3671875 C-2.27737771 6.24284511 -1.14123574 3.12055147 0 0 Z " fill="#F3F3F4" transform="translate(563,461)"/>
<path d="M0 0 C6.6 0 13.2 0 20 0 C20 9.57 20 19.14 20 29 C13.4 29 6.8 29 0 29 C0 19.43 0 9.86 0 0 Z " fill="#FBFAFB" transform="translate(176,669)"/>
<path d="M0 0 C4.6911873 0.90531685 6.2766648 2.24519645 9.5625 5.6875 C10.4375 7.5 10.4375 7.5 10.5625 9.6875 C10.68625 11.605625 10.68625 11.605625 10.8125 13.5625 C10.73902315 18.49463374 9.20026482 21.99326053 5.75 25.5625 C2.72248775 27.1195063 0.92556604 27.23657201 -2.4375 26.6875 C-6.38585282 23.44107657 -8.19223905 21.11558343 -8.7109375 15.98046875 C-9.01926465 6.5527733 -9.01926465 6.5527733 -6.375 2.9375 C-3.4375 0.6875 -3.4375 0.6875 0 0 Z " fill="#F9F9F9" transform="translate(403.4375,542.3125)"/>
<path d="M0 0 C1.79244141 0.01740234 1.79244141 0.01740234 3.62109375 0.03515625 C5.41740234 0.04869141 5.41740234 0.04869141 7.25 0.0625 C8.17683594 0.07410156 9.10367187 0.08570313 10.05859375 0.09765625 C11.03936346 9.18109261 11.23983912 18.01519184 10.05859375 27.09765625 C9.05859375 28.09765625 9.05859375 28.09765625 6.1171875 28.1953125 C4.92222656 28.18371094 3.72726562 28.17210937 2.49609375 28.16015625 C0.69978516 28.14662109 0.69978516 28.14662109 -1.1328125 28.1328125 C-2.05964844 28.12121094 -2.98648437 28.10960937 -3.94140625 28.09765625 C-3.97026963 23.61850297 -3.98815812 19.13937334 -4.00390625 14.66015625 C-4.01228516 13.38076172 -4.02066406 12.10136719 -4.02929688 10.78320312 C-4.03251953 9.56826172 -4.03574219 8.35332031 -4.0390625 7.1015625 C-4.04429932 5.97564697 -4.04953613 4.84973145 -4.05493164 3.68969727 C-3.89316767 -0.00373951 -3.73707285 0.1240728 0 0 Z " fill="#F0EFF0" transform="translate(333.94140625,731.90234375)"/>
<path d="M0 0 C4.62 0 9.24 0 14 0 C14 8.91 14 17.82 14 27 C9.38 27 4.76 27 0 27 C0 18.09 0 9.18 0 0 Z " fill="#ECECEC" transform="translate(390,732)"/>
<path d="M0 0 C4.29 0 8.58 0 13 0 C13 8.91 13 17.82 13 27 C8.71 27 4.42 27 0 27 C0 18.09 0 9.18 0 0 Z " fill="#F6F6F6" transform="translate(409,732)"/>
<path d="M0 0 C4.62 0 9.24 0 14 0 C14.02703536 3.22922308 14.04685642 6.45821846 14.0625 9.6875 C14.07087891 10.59951172 14.07925781 11.51152344 14.08789062 12.45117188 C14.09111328 13.33740234 14.09433594 14.22363281 14.09765625 15.13671875 C14.10289307 15.94842529 14.10812988 16.76013184 14.11352539 17.59643555 C14 20 14 20 13 25 C8.71 25 4.42 25 0 25 C0 16.75 0 8.5 0 0 Z " fill="#F0F0F0" transform="translate(620,681)"/>
<path d="M0 0 C1.31677734 0.00966797 1.31677734 0.00966797 2.66015625 0.01953125 C4.9375 0.1875 4.9375 0.1875 6.9375 1.1875 C6.9375 8.4475 6.9375 15.7075 6.9375 23.1875 C1.9875 23.1875 -2.9625 23.1875 -8.0625 23.1875 C-8.14314549 19.72870466 -8.2028281 16.27177259 -8.25 12.8125 C-8.27513672 11.82765625 -8.30027344 10.8428125 -8.32617188 9.828125 C-8.33583984 8.88710938 -8.34550781 7.94609375 -8.35546875 6.9765625 C-8.3711792 6.10725098 -8.38688965 5.23793945 -8.40307617 4.34228516 C-8.29068604 3.63120605 -8.1782959 2.92012695 -8.0625 2.1875 C-4.79122414 0.00664943 -3.78873277 -0.06137859 0 0 Z " fill="#F3F3F3" transform="translate(704.0625,733.8125)"/>
<path d="M0 0 C3.96 0 7.92 0 12 0 C12 8.58 12 17.16 12 26 C7.71 26 3.42 26 -1 26 C-1.0268245 21.85412418 -1.04675315 17.70841962 -1.0625 13.5625 C-1.07087891 12.37849609 -1.07925781 11.19449219 -1.08789062 9.97460938 C-1.09111328 8.84990234 -1.09433594 7.72519531 -1.09765625 6.56640625 C-1.10289307 5.52427979 -1.10812988 4.48215332 -1.11352539 3.40844727 C-1 1 -1 1 0 0 Z " fill="#F7F7F7" transform="translate(642,735)"/>
<path d="M0 0 C3.96 0 7.92 0 12 0 C12 8.58 12 17.16 12 26 C8.04 26 4.08 26 0 26 C-1.71567792 24.28432208 -1.13015825 22.02627265 -1.1328125 19.6875 C-1.13410156 18.61242187 -1.13539063 17.53734375 -1.13671875 16.4296875 C-1.13091797 14.73199219 -1.13091797 14.73199219 -1.125 13 C-1.12886719 11.86820313 -1.13273438 10.73640625 -1.13671875 9.5703125 C-1.13542969 8.49523437 -1.13414062 7.42015625 -1.1328125 6.3125 C-1.13168457 5.31863281 -1.13055664 4.32476563 -1.12939453 3.30078125 C-1 1 -1 1 0 0 Z " fill="#F4F4F5" transform="translate(642,681)"/>
<path d="M0 0 C9 0 9 0 13 2 C13.0270491 5.06255961 13.04686298 8.1248786 13.0625 11.1875 C13.07087891 12.05181641 13.07925781 12.91613281 13.08789062 13.80664062 C13.09111328 14.64775391 13.09433594 15.48886719 13.09765625 16.35546875 C13.10289307 17.12528076 13.10812988 17.89509277 13.11352539 18.68823242 C13 21 13 21 12 26 C8.04 26 4.08 26 0 26 C0 17.42 0 8.84 0 0 Z " fill="#F6F6F6" transform="translate(621,735)"/>
<path d="M0 0 C3.96 0 7.92 0 12 0 C12 8.91 12 17.82 12 27 C8.04 27 4.08 27 0 27 C0 18.09 0 9.18 0 0 Z " fill="#F8F8F8" transform="translate(350,732)"/>
<path d="M0 0 C2.3433028 2.11854552 3.80108224 3.81072883 4.33251953 6.98803711 C4.42934329 9.25528463 4.39853548 11.48248707 4.3125 13.75 C4.30283203 14.52988281 4.29316406 15.30976562 4.28320312 16.11328125 C4.16884566 21.83115434 4.16884566 21.83115434 3 23 C0.83519203 23.0989294 -1.33293785 23.129711 -3.5 23.125 C-4.6859375 23.12757813 -5.871875 23.13015625 -7.09375 23.1328125 C-10 23 -10 23 -11 22 C-11.18061605 19.04796394 -11.27817579 16.14167037 -11.3125 13.1875 C-11.34150391 12.36701172 -11.37050781 11.54652344 -11.40039062 10.70117188 C-11.46414376 4.65443263 -11.46414376 4.65443263 -9.19921875 1.4609375 C-5.94361622 -0.70175406 -3.81330458 -0.61285252 0 0 Z " fill="#F0F0F0" transform="translate(772,666)"/>
<path d="M0 0 C3.35286458 0.03255208 6.70572917 0.06510417 10.05859375 0.09765625 C10.05859375 7.68765625 10.05859375 15.27765625 10.05859375 23.09765625 C5.43859375 23.09765625 0.81859375 23.09765625 -3.94140625 23.09765625 C-3.96823612 19.45177456 -3.98816194 15.80608779 -4.00390625 12.16015625 C-4.01228516 11.11923828 -4.02066406 10.07832031 -4.02929688 9.00585938 C-4.03413086 7.52182617 -4.03413086 7.52182617 -4.0390625 6.0078125 C-4.04429932 5.09136963 -4.04953613 4.17492676 -4.05493164 3.23071289 C-3.87659086 -0.12017608 -3.4129694 0.1133124 0 0 Z " fill="#F9F9F9" transform="translate(827.94140625,644.90234375)"/>
<path d="M0 0 C8 1 8 1 11 3.3125 C14.29287187 7.91135835 13.81967286 13.63828672 13 19 C10.99269405 22.5844749 8.92111 24.69296333 5 26 C3.35 26 1.7 26 0 26 C0 17.42 0 8.84 0 0 Z " fill="#F1F1F1" transform="translate(630,543)"/>
<path d="M0 0 C2.92509086 3.90012114 3.47535095 5.38308839 4 10 C1.69 10 -0.62 10 -3 10 C-2.01 6.7 -1.02 3.4 0 0 Z " fill="#DFDFDF" transform="translate(595,549)"/>
<path d="M0 0 C1.32 0 2.64 0 4 0 C4 1.65 4 3.3 4 5 C2.68 5 1.36 5 0 5 C0 3.35 0 1.7 0 0 Z " fill="#E0E1E1" transform="translate(251,435)"/>
</svg>
