<?xml version="1.0" encoding="UTF-8"?>
<svg version="1.1" xmlns="http://www.w3.org/2000/svg" width="1024" height="1024">
<path d="M0 0 C337.92 0 675.84 0 1024 0 C1024 337.92 1024 675.84 1024 1024 C686.08 1024 348.16 1024 0 1024 C0 686.08 0 348.16 0 0 Z " fill="#010100" transform="translate(0,0)"/>
<path d="M0 0 C337.92 0 675.84 0 1024 0 C1024 337.92 1024 675.84 1024 1024 C686.08 1024 348.16 1024 0 1024 C0 686.08 0 348.16 0 0 Z M419 84 C416.63027995 84.40703427 414.2542704 84.77812485 411.875 85.125 C398.96882133 87.22654736 386.48836311 91.20403401 374 95 C373.0610791 95.28359375 372.1221582 95.5671875 371.15478516 95.859375 C316.25023733 112.66121675 265.83042705 142.20253546 222 179 C221.47374023 179.43602539 220.94748047 179.87205078 220.40527344 180.32128906 C211.62330303 187.60500976 203.44813603 195.32965436 195.47705078 203.49023438 C192.42520224 206.60967758 189.32791942 209.68032437 186.203125 212.7265625 C179.6407027 219.14433104 173.70906399 225.80080511 168 233 C167.00642611 234.20650665 166.0101635 235.41080238 165.01171875 236.61328125 C136.27357364 271.3138058 112.39340352 310.99141996 96 353 C95.60570801 354.00901367 95.21141602 355.01802734 94.80517578 356.05761719 C86.74874209 376.85380934 80.00648014 397.8302818 75.49975586 419.68359375 C74.89185344 422.50126748 74.21793642 425.30124222 73.55078125 428.10546875 C62.76309982 474.70085909 60.04108956 527.19353866 68.35839844 574.34912109 C68.93519855 577.631263 69.46658054 580.91603564 69.98171997 584.20814514 C76.14123633 623.41336961 87.76321124 660.77901439 104 697 C104.41217773 697.92216309 104.82435547 698.84432617 105.24902344 699.79443359 C118.84258879 729.92263787 136.62476557 758.00656407 157 784 C157.67675781 784.8765625 158.35351562 785.753125 159.05078125 786.65625 C176.20491802 808.53398965 195.69996215 830.93933601 217.6171875 848.11328125 C219.88374607 849.90794976 222.00034044 851.79095079 224.125 853.75 C285.27388425 908.5881453 368.07785182 943.23208489 449 954 C449.93312012 954.12455566 450.86624023 954.24911133 451.82763672 954.37744141 C456.87587153 955.0316089 461.92491153 955.59970402 467 956 C468.46651001 956.12701294 468.46651001 956.12701294 469.96264648 956.2565918 C483.27401777 957.25994331 496.61548188 957.25783828 509.95776367 957.29516602 C512.75453993 957.303949 515.55080688 957.32467511 518.34741211 957.35668945 C537.97303201 957.57605915 556.5959353 956.23025156 576 953 C578.44581068 952.60673294 580.8916929 952.21391052 583.33764648 951.8215332 C606.25038425 948.09468344 629.01213269 942.46850465 651 935 C652.24652344 934.5875 653.49304688 934.175 654.77734375 933.75 C673.34140914 927.48830223 691.82586919 920.19772854 709.13427734 910.99023438 C711.12989801 909.93105649 713.13628192 908.89439224 715.14453125 907.859375 C740.20530746 894.87221695 763.93717851 879.62208146 786 862 C786.80099121 861.36457275 786.80099121 861.36457275 787.61816406 860.71630859 C793.4838831 856.0513412 799.11784569 851.16823994 804.66015625 846.125 C806.79611116 844.18516782 808.9517711 842.27286851 811.125 840.375 C811.76308594 839.81683594 812.40117188 839.25867188 813.05859375 838.68359375 C814.39808309 837.52198428 815.74492862 836.36882212 817.09765625 835.22265625 C821.19428232 831.72329529 824.62612772 828.19454392 828 824 C829.6436814 822.31066078 831.3142876 820.64740076 833 819 C834.46167789 817.56590094 835.91966476 816.12803522 837.375 814.6875 C838.43847656 813.64142578 838.43847656 813.64142578 839.5234375 812.57421875 C878.08794838 772.48902526 907.53429631 721.80406362 926.88818359 669.95361328 C927.82910916 667.45398273 928.80009747 664.97219629 929.80078125 662.49609375 C933.95288623 652.12229875 936.66654735 641.44881363 939.34472656 630.61669922 C939.8908356 628.43592551 940.46071298 626.26572115 941.0546875 624.09765625 C943.54574923 614.78190886 945.34241585 605.34551976 947.125 595.875 C947.25342285 595.19567413 947.3818457 594.51634827 947.51416016 593.81643677 C955.11890472 553.40524881 956.07605164 511.89261064 952 471 C951.84724609 469.46545166 951.84724609 469.46545166 951.69140625 467.89990234 C949.34000609 445.27493324 944.97550315 422.94084325 939 401 C938.75556152 400.09137207 938.51112305 399.18274414 938.25927734 398.24658203 C931.46393507 373.22523708 922.2759206 349.33302815 911 326 C910.53948242 325.0419043 910.07896484 324.08380859 909.60449219 323.09667969 C893.58029645 289.91413 873.20283006 257.55260901 848.13671875 230.38671875 C846.03599109 228.04020211 844.11901556 225.61168171 842.1875 223.125 C837.47908013 217.29791299 832.23149697 212.04447803 826.9375 206.75 C826.08631592 205.89809082 825.23513184 205.04618164 824.3581543 204.16845703 C819.94505057 199.7934305 815.46104687 195.56238864 810.74926758 191.51074219 C808.40179913 189.48336818 806.14333416 187.3651669 803.875 185.25 C789.14616288 171.83986042 772.69285333 160.14453482 756.00732422 149.30664062 C754.64887475 148.42237627 753.29381059 147.53289298 751.94189453 146.63867188 C728.59215032 131.21164124 703.7128188 118.91903245 678 108 C677.1426123 107.63438965 676.28522461 107.2687793 675.40185547 106.89208984 C661.95484522 101.22645406 648.00311516 97.05190774 634 93 C632.22737793 92.48687256 632.22737793 92.48687256 630.41894531 91.96337891 C600.55121577 83.42572417 570.96773325 78.20001494 540 76 C538.03848999 75.85860596 538.03848999 75.85860596 536.03735352 75.71435547 C499.62086694 73.19585481 453.93269461 71.85601604 419 84 Z " fill="#FDFDFD" transform="translate(0,0)"/>
<path d="M0 0 C2.31 0 4.62 0 7 0 C8.625 5.6875 8.625 5.6875 9.15625 7.54907227 C10.25365942 11.39329372 11.3552162 15.2362855 12.4609375 19.078125 C12.97421889 20.86450849 13.48723505 22.6509682 14 24.4375 C14.26063232 25.34532227 14.52126465 26.25314453 14.78979492 27.18847656 C16.23807245 32.25676498 17.62192527 37.33329589 18.9375 42.4375 C20.8255079 49.61979672 23.08225349 56.66737805 25.35864258 63.73486328 C27.83915953 71.44567422 30.16208284 79.19232269 32.41162109 86.97314453 C33.00402889 89.01387878 33.60412568 91.05218782 34.20703125 93.08984375 C36.00205359 99.15760545 37.78619908 105.22731992 39.5078125 111.31640625 C41.8546671 119.61679824 44.22198569 127.8717758 47.015625 136.03515625 C50.20125516 145.62997091 52.84176264 155.40813177 55.54223633 165.14770508 C58.15979703 174.58362953 60.86328513 183.96913083 63.86206055 193.29125977 C65.79313105 199.29809391 67.60088709 205.33487316 69.35205078 211.39648438 C70.21933255 214.38998134 71.12094652 217.35241315 72.1328125 220.30078125 C73.01125078 223.03501931 73.16767293 225.14956014 73 228 C70.03 228.66 67.06 229.32 64 230 C64.33 264.98 64.66 299.96 65 336 C70.61 336.66 76.22 337.32 82 338 C82 335.03 82 332.06 82 329 C80.68 328.67 79.36 328.34 78 328 C78.77779503 322.85255251 79.92543649 317.83456306 81.140625 312.77734375 C81.35809387 311.86838852 81.57556274 310.95943329 81.79962158 310.02293396 C84.93569995 297.00840058 88.30510598 284.05197 91.64501953 271.08862305 C92.51025463 267.72759048 93.3724576 264.36579089 94.234375 261.00390625 C94.49788757 259.98518936 94.76140015 258.96647247 95.03289795 257.91688538 C96.21684819 253.29459881 97.33055276 248.73159313 98 244 C98.66 244 99.32 244 100 244 C100.24234375 245.20914063 100.4846875 246.41828125 100.734375 247.6640625 C101.07263263 249.31776646 101.41119083 250.97140895 101.75 252.625 C101.90726562 253.41390625 102.06453125 254.2028125 102.2265625 255.015625 C103.50114088 261.19242791 105.18002028 267.20255211 106.94287109 273.25634766 C108.5861351 279.07570338 110.00426443 284.94802695 111.4362793 290.82192993 C114.02754214 301.43610477 116.69197214 311.97193059 120.1875 322.33203125 C121 325 121 325 121 328 C119.68 328.66 118.36 329.32 117 330 C117 354.75 117 379.5 117 405 C130.2 405 143.4 405 157 405 C156.67 389.82 156.34 374.64 156 359 C155.01 358.67 154.02 358.34 153 358 C152.90153738 352.3438697 152.93204332 346.70847708 153.3125 341.0625 C153.37050781 340.18722656 153.42851563 339.31195312 153.48828125 338.41015625 C154 336 154 336 155.40820312 334.13208008 C160.39676518 327.45031437 162.21315658 318.31074121 164.3125 310.375 C164.60737305 309.26906494 164.90224609 308.16312988 165.20605469 307.02368164 C170.11862384 288.24545102 174.42910361 269.17009477 177.39453125 249.984375 C177.94620272 247.26516852 178.7162093 245.41968975 180 243 C180.235979 244.17578613 180.47195801 245.35157227 180.71508789 246.56298828 C186.19624239 295.94554676 186.19624239 295.94554676 206 337 C206.34057617 339.15478516 206.34057617 339.15478516 206.29296875 341.7890625 C206.28330078 342.73007812 206.27363281 343.67109375 206.26367188 344.640625 C206.2259668 346.11789062 206.2259668 346.11789062 206.1875 347.625 C206.17396484 348.61757813 206.16042969 349.61015625 206.14648438 350.6328125 C206.11105743 353.08908072 206.06166196 355.54427285 206 358 C205.01 358 204.02 358 203 358 C203 362.95 203 367.9 203 373 C204.05960938 372.6390625 205.11921875 372.278125 206.2109375 371.90625 C207.59890499 371.43734207 208.98692875 370.96860069 210.375 370.5 C211.07367187 370.26152344 211.77234375 370.02304687 212.4921875 369.77734375 C217.7734375 368 217.7734375 368 220 368 C220 359.42 220 350.84 220 342 C218.35 341.67 216.7 341.34 215 341 C214.67 302.39 214.34 263.78 214 224 C212.02 223.67 210.04 223.34 208 223 C208.6783726 216.03126332 210.18344301 209.31145989 211.72476196 202.48764038 C213.85426147 193.05298713 215.92257404 183.6122561 217.7265625 174.109375 C217.9295974 173.04076988 217.9295974 173.04076988 218.13673401 171.95057678 C218.78462342 168.52369745 219.42091786 165.09499007 220.0456543 161.66381836 C220.38850464 159.82509155 220.38850464 159.82509155 220.73828125 157.94921875 C220.93462158 156.86987061 221.13096191 155.79052246 221.33325195 154.6784668 C222 152 222 152 224 149 C228.39453125 163.6484375 228.39453125 163.6484375 229.18994141 166.31933594 C229.73523733 168.12384143 230.29511518 169.92399751 230.86865234 171.71972656 C231.14273926 172.58823242 231.41682617 173.45673828 231.69921875 174.3515625 C231.94889404 175.12580566 232.19856934 175.90004883 232.45581055 176.69775391 C233.04785323 179.2024477 233.09436889 181.43531993 233 184 C235.33522652 181.89287863 236.54248289 180.15976975 237.60546875 177.20703125 C237.99702148 176.1387207 237.99702148 176.1387207 238.39648438 175.04882812 C238.65751953 174.31083984 238.91855469 173.57285156 239.1875 172.8125 C239.59645508 171.68811523 239.59645508 171.68811523 240.01367188 170.54101562 C240.68326096 168.69670884 241.34263721 166.84869988 242 165 C242.66 165 243.32 165 244 165 C245.89023156 170.14810126 247.76128682 175.30184743 249.56640625 180.48046875 C249.83437012 181.2475415 250.10233398 182.01461426 250.37841797 182.80493164 C250.91501529 184.34364145 251.44922158 185.8831873 251.98095703 187.42358398 C253.00743455 190.98608255 253.00743455 190.98608255 255 194 C255.22550537 192.8864917 255.22550537 192.8864917 255.45556641 191.75048828 C258.15072341 178.48249315 260.89227805 165.24093207 264 152.0625 C268.41034986 133.23772947 272.85957222 114.23228197 274.67578125 94.95703125 C275 92 275 92 276 89 C276.26466936 86.13484919 276.44396154 83.27024052 276.62109375 80.3984375 C276.74613281 79.60695313 276.87117188 78.81546875 277 78 C277.66 77.67 278.32 77.34 279 77 C280.66678214 82.54482859 282.07921589 88.0122198 282.8671875 93.75390625 C284.1441927 102.32712755 285.94556898 110.7755717 287.75 119.25 C287.92773956 120.08925018 288.10547913 120.92850037 288.28860474 121.79318237 C291.60208495 137.42319414 295.23145685 152.956997 299.11621094 168.45507812 C300.14980919 172.57912649 301.17447201 176.70533354 302.19558716 180.83248901 C302.79557588 183.24446444 303.40623111 185.6535651 304.01733398 188.06274414 C306.09470672 196.38078304 307.69246916 204.38808684 308 213 C306.68 213.66 305.36 214.32 304 215 C304.01571045 215.59538574 304.0314209 216.19077148 304.04760742 216.80419922 C304.10985801 219.49437003 304.14895783 222.18438957 304.1875 224.875 C304.21263672 225.81214844 304.23777344 226.74929688 304.26367188 227.71484375 C304.27333984 228.61074219 304.28300781 229.50664062 304.29296875 230.4296875 C304.3086792 231.25710449 304.32438965 232.08452148 304.34057617 232.93701172 C304.17199097 233.95819092 304.17199097 233.95819092 304 235 C302.515 235.99 302.515 235.99 301 237 C300.55432026 239.01583598 300.55432026 239.01583598 300.63923645 241.37857056 C300.63511246 242.29846268 300.63098846 243.2183548 300.6267395 244.16612244 C300.63752533 245.17816238 300.64831116 246.19020233 300.65942383 247.23291016 C300.65876671 248.82805702 300.65876671 248.82805702 300.65809631 250.45542908 C300.66019254 253.98349127 300.68356328 257.51108295 300.70703125 261.0390625 C300.71262423 263.48000834 300.71689573 265.92095755 300.71989441 268.36190796 C300.73136661 274.79656215 300.76085435 281.23101423 300.79400635 287.66558838 C300.82465602 294.22755194 300.83838883 300.78954805 300.85351562 307.3515625 C300.88572167 320.23446396 300.93694675 333.11721519 301 346 C303.97 346.33 306.94 346.66 310 347 C309.88658509 344.51979503 309.75985314 342.04155031 309.625 339.5625 C309.5940625 338.85544922 309.563125 338.14839844 309.53125 337.41992188 C309.42719371 335.60760812 309.22080108 333.80182012 309 332 C308.34 331.67 307.68 331.34 307 331 C306.71611196 322.72700208 307.47835337 314.69175512 308.53787231 306.49926758 C308.81995594 304.31732771 309.09345615 302.13444825 309.36499023 299.95117188 C309.90326867 295.63325229 310.45099895 291.31656707 311 287 C313.44614043 267.69962295 315.32315319 248.37989189 317 229 C317.66 229 318.32 229 319 229 C319.81817026 234.99157704 320.63602713 240.98319675 321.45361328 246.97485352 C321.7308742 249.00644034 322.00821573 251.03801617 322.28564453 253.06958008 C322.68804608 256.01640875 323.09015155 258.96327768 323.4921875 261.91015625 C323.62389343 262.8744455 323.75559937 263.83873474 323.89129639 264.83224487 C324.4600747 269.00374693 325.02606138 273.1754457 325.57128906 277.35009766 C326.57263708 285.01109586 327.70356464 292.63344228 329 300.25 C329.165 301.23484375 329.33 302.2196875 329.5 303.234375 C330.47434109 309.01952524 331.50855068 314.78871477 332.62060547 320.54907227 C333.16688682 324.07810603 333.13448623 327.43611498 333 331 C332.01 331 331.02 331 330 331 C330 345.52 330 360.04 330 375 C338.25 375.33 346.5 375.66 355 376 C354.94013364 371.58186265 354.85314173 367.16715681 354.75 362.75 C354.73582031 361.49574219 354.72164062 360.24148438 354.70703125 358.94921875 C354.67480469 357.74394531 354.64257812 356.53867187 354.609375 355.296875 C354.58842773 354.18666992 354.56748047 353.07646484 354.54589844 351.93261719 C353.88584969 348.3867739 352.58282703 347.40094691 350 345 C350.12785568 342.34309653 350.43208658 340.2915877 351.0625 337.75 C351.34222656 336.48671875 351.62195313 335.2234375 351.91015625 333.921875 C352.07829834 333.18283936 352.24644043 332.44380371 352.41967773 331.68237305 C355.10482937 319.27103057 357.15893526 306.70033438 359.3125 294.1875 C359.46140686 293.32235779 359.61031372 292.45721558 359.76373291 291.56585693 C362.2085358 277.28518091 364.37991078 262.97512643 366.375 248.625 C366.50210358 247.71471039 366.62920715 246.80442078 366.76016235 245.86654663 C368.04874012 236.59511864 369.31181994 227.33958657 370 218 C370.66 218 371.32 218 372 218 C373.14349586 220.28699173 373.41384503 222.15666497 373.796875 224.6875 C373.94825928 225.67886963 374.09964355 226.67023926 374.25561523 227.69165039 C374.41876221 228.78340576 374.58190918 229.87516113 374.75 231 C375.01115601 232.71401001 375.01115601 232.71401001 375.27758789 234.46264648 C376.28460099 241.10733665 377.25483972 247.75634334 378.19921875 254.41015625 C380.61786162 271.40007179 383.36956866 288.21827102 387 305 C387.29542195 306.37561357 387.59065898 307.75126685 387.88574219 309.12695312 C389.42274118 316.28356419 390.9729659 323.43734828 392.546875 330.5859375 C392.80307617 331.7517334 393.05927734 332.9175293 393.32324219 334.11865234 C393.96451785 337.04510497 393.96451785 337.04510497 395 340 C395.25 343.5625 395.25 343.5625 395 347 C394.01 347.66 393.02 348.32 392 349 C391.66207464 351.61677492 391.51113911 354.00936392 391.48828125 356.6328125 C391.47033005 357.38464813 391.45237885 358.13648376 391.43388367 358.91110229 C391.37964219 361.31567756 391.34584208 363.72005285 391.3125 366.125 C391.27933898 367.75393417 391.24485045 369.3828419 391.20898438 371.01171875 C391.12390838 375.00766846 391.05716422 379.00355746 391 383 C392.25296875 383.06058594 393.5059375 383.12117188 394.796875 383.18359375 C396.44792724 383.26802256 398.09896835 383.35266939 399.75 383.4375 C400.9875 383.49647461 400.9875 383.49647461 402.25 383.55664062 C403.04921875 383.59853516 403.8484375 383.64042969 404.671875 383.68359375 C405.4050293 383.72025146 406.13818359 383.75690918 406.89355469 383.79467773 C410.5535089 384.15142571 412.42238994 384.35601137 414.9375 387.16015625 C415.618125 388.11792969 416.29875 389.07570313 417 390.0625 C417.78717338 391.15276783 418.57496781 392.24258745 419.36328125 393.33203125 C419.78432129 393.92064941 420.20536133 394.50926758 420.63916016 395.11572266 C423.10556927 398.53081874 425.65263021 401.88560119 428.1875 405.25 C429.64528127 407.19266249 431.10097401 409.13443664 432.52832031 411.09960938 C433.95715195 413.02737812 433.95715195 413.02737812 435.66699219 414.66601562 C441.83496975 421.26329324 440.89272185 429.52864255 440.875 438 C440.89276933 439.6889096 440.91292514 441.37779556 440.93530273 443.06665039 C440.98730252 447.69704238 440.99849971 452.32668111 440.99859619 456.95733643 C441.00006732 460.14591465 441.00964305 463.33439148 441.02099609 466.52294922 C441.06804754 480.34890428 441.05793098 494.17410337 441 508 C441.85464844 508.06058594 442.70929687 508.12117188 443.58984375 508.18359375 C444.69457031 508.26738281 445.79929687 508.35117187 446.9375 508.4375 C448.03964844 508.51871094 449.14179687 508.59992188 450.27734375 508.68359375 C453 509 453 509 454 510 C454.13962264 511.41349953 454.21209023 512.83372903 454.25634766 514.25341797 C454.28532135 515.15881317 454.31429504 516.06420837 454.34414673 516.99703979 C454.44183023 521.18173981 454.51584589 525.36626596 454.56982422 529.55175781 C454.60631709 531.74972638 454.66071723 533.94747782 454.73388672 536.14453125 C455.40919824 556.73375243 455.40919824 556.73375243 449.75 563.68359375 C448.20475343 565.1632251 446.62139036 566.60422452 445 568 C443.43961847 569.71229757 441.89559313 571.4397729 440.375 573.1875 C439.62605469 574.00992188 438.87710938 574.83234375 438.10546875 575.6796875 C436.27082315 577.70154184 434.47231214 579.74678522 432.6875 581.8125 C429.0186759 586.0286545 425.21366857 590.11515922 421.41186523 594.2109375 C418.63968871 597.20326643 415.91007462 600.2192481 413.25 603.3125 C410.27489858 606.75926384 407.08212234 609.93869012 403.8359375 613.12890625 C401.81481721 615.13185555 401.81481721 615.13185555 399.5 618.0625 C396.88660191 621.13324276 394.08977659 623.61645176 391.02734375 626.22265625 C389.14964868 627.86880511 387.41872302 629.57735116 385.6875 631.375 C381.99313071 635.12801008 377.96479652 638.39856004 373.86328125 641.6953125 C372.05439905 643.15130226 370.2582096 644.62333394 368.48046875 646.1171875 C345.35859989 665.50972267 319.25777973 681.94054547 292.07617188 695.00097656 C289.87380485 696.06072326 287.67929311 697.13585654 285.484375 698.2109375 C257.61336349 711.76196548 219.66408859 729 188 729 C187.99503478 728.05938076 187.99503478 728.05938076 187.98996925 727.0997591 C187.90849029 711.79001924 187.81631808 696.48038348 187.71247292 681.17078114 C187.66250634 673.76695094 187.61606266 666.36313093 187.578125 658.95922852 C187.54502128 652.50050627 187.50509102 646.04186707 187.45720994 639.58323687 C187.43212608 636.16842388 187.41029315 632.75366466 187.39665604 629.33878517 C187.37965132 625.51195168 187.35058269 621.68537853 187.31884766 617.85864258 C187.31560738 616.18951309 187.31560738 616.18951309 187.31230164 614.48666382 C187.04208542 588.79930347 176.89789013 568.5588915 159.4375 550 C145.8945406 536.82921353 127.70669651 526.49337229 108.5234375 526.73046875 C92.27185162 527.97366102 77.2592794 537.93590837 65 548 C63.59621094 549.12148437 63.59621094 549.12148437 62.1640625 550.265625 C47.83978334 562.38308244 38.72069753 579.45923659 36 598 C35.71394946 602.35730732 35.68914696 606.70311782 35.68115234 611.06884766 C35.67110672 612.33827209 35.6610611 613.60769653 35.65071106 614.91558838 C35.62362756 618.36528689 35.60832668 621.81494508 35.59528303 625.26472139 C35.57955671 628.88155474 35.55279727 632.49830686 35.5272522 636.11508179 C35.48063144 642.94999966 35.44380701 649.78493309 35.41057932 656.61992776 C35.37223924 664.40724453 35.32286059 672.19447938 35.27259517 679.98172688 C35.16952403 695.98775855 35.08018367 711.99383632 35 728 C33.58962458 727.85217397 32.1795205 727.70175805 30.76953125 727.55029297 C29.98425049 727.4668161 29.19896973 727.38333923 28.38989258 727.29733276 C1.08794644 723.9006265 -27.08260073 712.17970462 -52 701 C-52.84691406 700.62133789 -53.69382812 700.24267578 -54.56640625 699.85253906 C-72.15271536 691.91943484 -88.81327076 682.47712457 -105 672 C-105.64598145 671.58218262 -106.29196289 671.16436523 -106.95751953 670.73388672 C-115.55913869 665.1435871 -123.88048573 659.27700911 -132 653 C-132.58201172 652.55479004 -133.16402344 652.10958008 -133.76367188 651.65087891 C-146.29736627 642.05829216 -146.29736627 642.05829216 -151.31396484 636.71826172 C-153.03499275 634.96433841 -154.82788923 633.36678499 -156.69140625 631.765625 C-160.90602568 628.10383728 -165.00050083 624.32980303 -169.0625 620.5 C-169.79130371 619.81292969 -170.52010742 619.12585938 -171.27099609 618.41796875 C-190.60542925 600.10862457 -190.60542925 600.10862457 -198.40625 590.875 C-200.34325871 588.59616622 -202.35905625 586.39675343 -204.375 584.1875 C-209.10677558 578.94157563 -213.57806162 573.50790399 -218 568 C-218.67192383 567.4237085 -219.34384766 566.84741699 -220.03613281 566.25366211 C-225.15113737 561.30027355 -226.48605256 556.98472511 -226.80867004 550.06692505 C-226.86738549 545.95951761 -226.82699018 541.86327093 -226.71337891 537.75708008 C-226.62455457 534.54639945 -226.59039472 531.33871534 -226.56640625 528.12695312 C-226.53958087 526.08589407 -226.50974119 524.04487191 -226.4765625 522.00390625 C-226.46178864 521.0445668 -226.44701477 520.08522736 -226.43179321 519.09681702 C-226.40612274 518.20836594 -226.38045227 517.31991486 -226.35400391 516.40454102 C-226.32447128 515.23399925 -226.32447128 515.23399925 -226.29434204 514.03981018 C-226 512 -226 512 -224 509 C-219.71 508.67 -215.42 508.34 -211 508 C-211 480.94 -211 453.88 -211 426 C-213.64 424.68 -216.28 423.36 -219 422 C-219 418.7 -219 415.4 -219 412 C-216.20849551 411.66525856 -213.41681356 411.33214502 -210.625 411 C-209.43390625 410.85691406 -209.43390625 410.85691406 -208.21875 410.7109375 C-202.2265625 410 -202.2265625 410 -200 410 C-200.00785522 409.08734375 -200.00785522 409.08734375 -200.01586914 408.15625 C-200.12145083 393.61537942 -199.99717664 379.08242708 -199.68161011 364.54492188 C-199.64409914 362.7757793 -199.60965737 361.00656879 -199.57839966 359.23730469 C-199.532751 356.71780747 -199.47495283 354.19885714 -199.4140625 351.6796875 C-199.40250626 350.9367746 -199.39095001 350.19386169 -199.37904358 349.42843628 C-199.21570532 343.55844442 -198.65832636 337.31665272 -196 332 C-195.34 332 -194.68 332 -194 332 C-193.01 334.31 -192.02 336.62 -191 339 C-190.61328125 337.96101563 -190.2265625 336.92203125 -189.828125 335.8515625 C-187.27469619 329.00735423 -184.72029728 322.16931207 -181.95703125 315.40625 C-181.48330078 314.21515625 -181.48330078 314.21515625 -181 313 C-180.49130371 311.79988281 -179.98260742 310.59976562 -179.45849609 309.36328125 C-177.85793304 305.07065925 -177.60686709 301.3251524 -177.70703125 296.78125 C-177.71339851 295.66623108 -177.71339851 295.66623108 -177.71989441 294.52868652 C-177.73650919 292.18540142 -177.77412546 289.84301923 -177.8125 287.5 C-177.82756922 285.89845004 -177.84125368 284.29688642 -177.85351562 282.6953125 C-177.88635574 278.79653417 -177.93801437 274.89841944 -178 271 C-178.99 270.67 -179.98 270.34 -181 270 C-180.40328594 262.23442946 -178.58075234 255.05404407 -176.5 247.5625 C-176.17902344 246.37978516 -175.85804688 245.19707031 -175.52734375 243.97851562 C-173.15618086 235.31236173 -173.15618086 235.31236173 -172 233 C-171.34 233 -170.68 233 -170 233 C-165.73876473 244.80452836 -162.74901067 256.76469272 -160 269 C-160.99 269.33 -161.98 269.66 -163 270 C-163 278.91 -163 287.82 -163 297 C-149.8 294.03 -136.6 291.06 -123 288 C-121.78392379 280.09550467 -120.60954011 272.24662395 -119.6875 264.3125 C-119.56560303 263.28415039 -119.44370605 262.25580078 -119.31811523 261.19628906 C-118.68731115 255.87085423 -118.06369305 250.54458308 -117.44042969 245.21826172 C-114.8519341 223.11026105 -112.16645205 201.03392987 -109 179 C-108.62876951 176.4010612 -108.25767562 173.80210287 -107.88671875 171.203125 C-107.59119028 169.13541031 -107.29563393 167.06769961 -107 165 C-106.34 165 -105.68 165 -105 165 C-104.40975783 171.54105994 -103.82719722 178.08277597 -103.25 184.625 C-103.16140717 185.62909912 -103.07281433 186.63319824 -102.98153687 187.66772461 C-101.22876664 207.63124028 -99.7275355 227.61038615 -98.30761719 247.60009766 C-98.22728745 248.71748322 -98.1469577 249.83486877 -98.06419373 250.9861145 C-97.91396107 253.07795734 -97.76606954 255.16997018 -97.62098694 257.26217651 C-97.28664728 261.90537395 -96.77065654 266.40687035 -96 271 C-95.93611612 272.95740193 -95.91361831 274.91670147 -95.9375 276.875 C-95.94652344 277.84179688 -95.95554687 278.80859375 -95.96484375 279.8046875 C-95.98224609 280.89136719 -95.98224609 280.89136719 -96 282 C-91.91555945 281.23496195 -87.83267924 280.46187775 -83.75 279.6875 C-82.61046875 279.47416016 -81.4709375 279.26082031 -80.296875 279.04101562 C-69.02191611 277.026898 -69.02191611 277.026898 -58 274 C-56.85684253 271.71368506 -56.87887268 270.45652594 -56.88647461 267.91748047 C-56.88655014 267.07675995 -56.88662567 266.23603943 -56.88670349 265.36984253 C-56.89186478 264.46146637 -56.89702606 263.55309021 -56.90234375 262.6171875 C-56.9037587 261.68778351 -56.90517365 260.75837952 -56.90663147 259.80081177 C-56.91223947 256.82550876 -56.92479332 253.85028036 -56.9375 250.875 C-56.94251397 248.86067817 -56.94707705 246.84635516 -56.95117188 244.83203125 C-56.9622115 239.88799198 -56.97948151 234.94400865 -57 230 C-59.97 229.01 -62.94 228.02 -66 227 C-65.35274964 222.11897082 -63.94719525 217.68224597 -62.3125 213.0625 C-59.59587217 205.16612481 -57.42680293 197.20282411 -55.40063477 189.10498047 C-53.76436256 182.66504642 -51.87257179 176.3528756 -49.82958984 170.03076172 C-46.15645535 158.65584001 -43.61754221 147.94944184 -43 136 C-45.31 136 -47.62 136 -50 136 C-50 130.72 -50 125.44 -50 120 C-50.99 120 -51.98 120 -53 120 C-53.64371759 102.71499056 -50.87374138 86.55092883 -46 70 C-45.34 70 -44.68 70 -44 70 C-40.53016769 76.11058964 -38.02961005 82.41666796 -35.8125 89.0625 C-35.56290527 89.8054834 -35.31331055 90.5484668 -35.05615234 91.31396484 C-32.59516251 98.86288107 -30.66027924 106.01656205 -31 114 C-27.33333457 103.56170563 -24.36488161 93.05784713 -21.61181641 82.34814453 C-20.67752421 78.76234151 -19.68639708 75.19325711 -18.6875 71.625 C-18.48825928 70.91134277 -18.28901855 70.19768555 -18.08374023 69.46240234 C-17.6435664 67.88585622 -17.20320692 66.30936193 -16.76269531 64.73291016 C-12.63657168 49.94807408 -8.52604297 35.15857944 -4.625 20.3125 C-4.386604 19.41184814 -4.14820801 18.51119629 -3.90258789 17.58325195 C-2.38534477 11.75920821 -1.11858809 5.91332811 0 0 Z " fill="#FCFCFC" transform="translate(398,175)"/>
<path d="M0 0 C6.59299191 6.59299191 8.06816341 20.00276886 10.53515625 28.81640625 C13.31204053 38.71125341 16.37328411 48.52335162 19.39453125 58.34570312 C21.13375107 64.03456089 22.77487879 69.73796529 24.30200195 75.48754883 C25.02794078 78.10057312 25.84472353 80.67253209 26.6875 83.25 C27.94458762 87.34862944 28.27833195 90.73224348 28 95 C25.525 95.99 25.525 95.99 23 97 C22.67 146.17 22.34 195.34 22 246 C14.74 246 7.48 246 0 246 C-0.33 245.67 -0.66 245.34 -1 245 C-1 242.36 -1 239.72 -1 237 C-6.28 237 -11.56 237 -17 237 C-16.01 235.02 -16.01 235.02 -15 233 C-14.69244361 230.68873051 -14.69244361 230.68873051 -14.7215271 228.19110107 C-14.71036362 227.22638885 -14.69920013 226.26167664 -14.68769836 225.26773071 C-14.68553818 224.21612762 -14.68337799 223.16452454 -14.68115234 222.08105469 C-14.67110672 220.96856354 -14.6610611 219.85607239 -14.65071106 218.70986938 C-14.6198058 215.03054321 -14.60282329 211.35129004 -14.5859375 207.671875 C-14.56723179 205.12167733 -14.54765883 202.57148589 -14.5272522 200.02130127 C-14.48111543 193.99366126 -14.44372985 187.96602833 -14.41057932 181.938308 C-14.37234492 175.07492609 -14.32293824 168.21163881 -14.27259517 161.3483367 C-14.16930265 147.23229467 -14.08003356 133.11619168 -14 119 C-14.99 119 -15.98 119 -17 119 C-17 111.41 -17 103.82 -17 96 C-18.98 95.67 -20.96 95.34 -23 95 C-22.19369434 89.73328002 -21.05851316 84.56667147 -19.875 79.375 C-19.65980713 78.42931152 -19.44461426 77.48362305 -19.22290039 76.50927734 C-16.57222119 64.98175353 -13.66895501 53.51724917 -10.76953125 42.05029297 C-10.13262375 39.52569834 -9.50081161 37.00001761 -8.875 34.47265625 C-6.02217164 22.95436176 -3.01124401 11.47772765 0 0 Z " fill="#030303" transform="translate(663,417)"/>
<path d="M0 0 C7.93147732 4.51059667 13.13065888 11.39197665 16 20 C16.08397157 22.35680213 16.10728187 24.71594081 16.09765625 27.07421875 C16.09515869 28.32549561 16.09266113 29.57677246 16.09008789 30.8659668 C16.08098389 32.45707275 16.07187988 34.04817871 16.0625 35.6875 C16.041875 40.740625 16.02125 45.79375 16 51 C3.13 51 -9.74 51 -23 51 C-23.061875 46.565625 -23.12375 42.13125 -23.1875 37.5625 C-23.21481201 36.18263916 -23.24212402 34.80277832 -23.27026367 33.38110352 C-23.3500074 21.51986768 -21.19479121 13.71612982 -13 5 C-5.68896394 -1.86710219 -5.68896394 -1.86710219 0 0 Z " fill="#060606" transform="translate(579,592)"/>
<path d="M0 0 C2.31 0 4.62 0 7 0 C7 12.54 7 25.08 7 38 C4.36 38 1.72 38 -1 38 C-1.02464928 32.74894558 -1.04283568 27.49792455 -1.05493164 22.24682617 C-1.05997218 20.45905979 -1.06680454 18.67129755 -1.07543945 16.88354492 C-1.0875173 14.31948832 -1.09323094 11.75548603 -1.09765625 9.19140625 C-1.10281754 8.3872377 -1.10797882 7.58306915 -1.11329651 6.75453186 C-1.11349215 4.83598285 -1.06201983 2.91754632 -1 1 C-0.67 0.67 -0.34 0.34 0 0 Z " fill="#141414" transform="translate(282,541)"/>
<path d="M0 0 C1.4540625 0.0309375 1.4540625 0.0309375 2.9375 0.0625 C4.21536205 7.87053895 4.04908147 15.67612681 4 23.5625 C3.99497533 24.97135258 3.99041413 26.38020689 3.98632812 27.7890625 C3.9746003 31.21358638 3.95818691 34.63802047 3.9375 38.0625 C1.2975 38.0625 -1.3425 38.0625 -4.0625 38.0625 C-4.08714928 32.81144558 -4.10533568 27.56042455 -4.11743164 22.30932617 C-4.12247218 20.52155979 -4.12930454 18.73379755 -4.13793945 16.94604492 C-4.1500173 14.38198832 -4.15573094 11.81798603 -4.16015625 9.25390625 C-4.16531754 8.4497377 -4.17047882 7.64556915 -4.17579651 6.81703186 C-4.17599215 4.89848285 -4.12451983 2.98004632 -4.0625 1.0625 C-3.0625 0.0625 -3.0625 0.0625 0 0 Z " fill="#1A1A1A" transform="translate(247.0625,542.9375)"/>
<path d="M0 0 C0.64291459 13.00876125 1.17015617 25.97359973 1 39 C-1.64 39 -4.28 39 -7 39 C-7 26.46 -7 13.92 -7 1 C-4.53721199 -0.231394 -2.7204945 -0.07159196 0 0 Z " fill="#050505" transform="translate(327,538)"/>
<path d="M0 0 C1.4540625 0.0309375 1.4540625 0.0309375 2.9375 0.0625 C3.86828947 12.74450655 4.04935009 25.34887273 3.9375 38.0625 C1.2975 38.0625 -1.3425 38.0625 -4.0625 38.0625 C-4.08714928 32.81144558 -4.10533568 27.56042455 -4.11743164 22.30932617 C-4.12247218 20.52155979 -4.12930454 18.73379755 -4.13793945 16.94604492 C-4.1500173 14.38198832 -4.15573094 11.81798603 -4.16015625 9.25390625 C-4.16531754 8.4497377 -4.17047882 7.64556915 -4.17579651 6.81703186 C-4.17599215 4.89848285 -4.12451983 2.98004632 -4.0625 1.0625 C-3.0625 0.0625 -3.0625 0.0625 0 0 Z " fill="#111111" transform="translate(266.0625,541.9375)"/>
<path d="M0 0 C2.31 0 4.62 0 7 0 C7 12.54 7 25.08 7 38 C4.69 38 2.38 38 0 38 C0 25.46 0 12.92 0 0 Z " fill="#080808" transform="translate(301,540)"/>
<path d="M0 0 C0 12.21 0 24.42 0 37 C-1.98 37 -3.96 37 -6 37 C-6.33 24.79 -6.66 12.58 -7 0 C-5 -1 -5 -1 0 0 Z " fill="#121212" transform="translate(233,545)"/>
<path d="M0 0 C1.65 0 3.3 0 5 0 C5 12.21 5 24.42 5 37 C3.35 37 1.7 37 0 37 C0 24.79 0 12.58 0 0 Z " fill="#060606" transform="translate(210,546)"/>
<path d="M0 0 C2.4375 0.8125 2.4375 0.8125 4.4375 2.8125 C4.58257695 5.55735593 4.62402423 8.19730543 4.5625 10.9375 C4.55347656 11.69160156 4.54445313 12.44570313 4.53515625 13.22265625 C4.5115687 15.08607254 4.47569719 16.94932593 4.4375 18.8125 C1.1375 18.8125 -2.1625 18.8125 -5.5625 18.8125 C-5.6434313 16.20771117 -5.70295434 13.60543347 -5.75 11 C-5.78770508 9.89301758 -5.78770508 9.89301758 -5.82617188 8.76367188 C-5.90009613 3.31791848 -5.90009613 3.31791848 -4.2109375 0.7890625 C-2.5625 -0.1875 -2.5625 -0.1875 0 0 Z " fill="#0D0D0D" transform="translate(796.5625,586.1875)"/>
<path d="M0 0 C2.5625 0.3125 2.5625 0.3125 4.2109375 1.3515625 C6.28960115 4.3674271 5.87820706 7.47923697 5.75 11 C5.73646484 11.70189453 5.72292969 12.40378906 5.70898438 13.12695312 C5.67370182 14.85579829 5.61989583 16.58424765 5.5625 18.3125 C2.2625 18.3125 -1.0375 18.3125 -4.4375 18.3125 C-4.49132106 15.68722811 -4.53108313 13.06305287 -4.5625 10.4375 C-4.57925781 9.69113281 -4.59601562 8.94476562 -4.61328125 8.17578125 C-4.6308959 6.22055539 -4.54070189 4.26507979 -4.4375 2.3125 C-2.4375 0.3125 -2.4375 0.3125 0 0 Z " fill="#121212" transform="translate(630.4375,582.6875)"/>
<path d="M0 0 C2.5 0.25 2.5 0.25 4.5 2.25 C4.64517744 5.1593558 4.68630796 7.969946 4.625 10.875 C4.61597656 11.67679688 4.60695313 12.47859375 4.59765625 13.3046875 C4.57406223 15.28658523 4.53819065 17.26832981 4.5 19.25 C1.53 19.25 -1.44 19.25 -4.5 19.25 C-4.55380578 16.45807795 -4.59357669 13.6671859 -4.625 10.875 C-4.64175781 10.0809375 -4.65851562 9.286875 -4.67578125 8.46875 C-4.69335473 6.39507985 -4.60335168 4.32116759 -4.5 2.25 C-2.5 0.25 -2.5 0.25 0 0 Z " fill="#090909" transform="translate(706.5,581.75)"/>
<path d="M0 0 C2.5 0.25 2.5 0.25 4.5 2.25 C4.64507695 4.99485593 4.68652423 7.63480543 4.625 10.375 C4.61597656 11.12910156 4.60695313 11.88320313 4.59765625 12.66015625 C4.5740687 14.52357254 4.53819719 16.38682593 4.5 18.25 C1.53 18.25 -1.44 18.25 -4.5 18.25 C-4.55382106 15.62472811 -4.59358313 13.00055287 -4.625 10.375 C-4.64175781 9.62863281 -4.65851562 8.88226562 -4.67578125 8.11328125 C-4.6933959 6.15805539 -4.60320189 4.20257979 -4.5 2.25 C-2.5 0.25 -2.5 0.25 0 0 Z " fill="#050504" transform="translate(758.5,581.75)"/>
<path d="M0 0 C0.66 0 1.32 0 2 0 C2.02703562 2.58340384 2.04685611 5.16652308 2.0625 7.75 C2.07087891 8.47960937 2.07925781 9.20921875 2.08789062 9.9609375 C2.10391684 13.48670558 1.95292713 16.61034916 1 20 C-0.98 20 -2.96 20 -5 20 C-5.42159892 13.6760162 -4.15339068 7.95639716 -2 2 C-1.34 1.34 -0.68 0.68 0 0 Z " fill="#1F1F1F" transform="translate(290,508)"/>
<path d="M0 0 C0.99 0 1.98 0 3 0 C3.02697137 2.60423592 3.04682489 5.20819244 3.0625 7.8125 C3.07087891 8.55048828 3.07925781 9.28847656 3.08789062 10.04882812 C3.10259828 13.29922068 3.03531702 15.89404895 2 19 C0.35 19.33 -1.3 19.66 -3 20 C-3.21225012 13.42024642 -2.73300103 7.37541983 -1 1 C-0.67 0.67 -0.34 0.34 0 0 Z " fill="#202020" transform="translate(327,506)"/>
<path d="M0 0 C1.98 0 3.96 0 6 0 C6 4.62 6 9.24 6 14 C4.02 14 2.04 14 0 14 C0 9.38 0 4.76 0 0 Z " fill="#131313" transform="translate(671,388)"/>
<path d="M0 0 C0.02684679 2.64590014 0.04676357 5.29153096 0.0625 7.9375 C0.07087891 8.69224609 0.07925781 9.44699219 0.08789062 10.22460938 C0.09652441 12.14994313 0.05224333 14.07535581 0 16 C-1 17 -1 17 -3.5625 17.0625 C-4.366875 17.041875 -5.17125 17.02125 -6 17 C-5.91266027 14.91589342 -5.80447722 12.83265331 -5.6875 10.75 C-5.62949219 9.58984375 -5.57148438 8.4296875 -5.51171875 7.234375 C-4.94917055 3.67872682 -4.14086717 0 0 0 Z " fill="#1D1D1D" transform="translate(271,513)"/>
<path d="M0 0 C1.98 0 3.96 0 6 0 C6.02685938 2.14576637 6.04633088 4.29162645 6.0625 6.4375 C6.07410156 7.63246094 6.08570313 8.82742188 6.09765625 10.05859375 C6 13 6 13 5 14 C3.35 14 1.7 14 0 14 C0 9.38 0 4.76 0 0 Z " fill="#171616" transform="translate(683,388)"/>
<path d="M0 0 C0 5.28 0 10.56 0 16 C-1.98 16 -3.96 16 -6 16 C-5.91291962 13.89505699 -5.80474307 11.79097858 -5.6875 9.6875 C-5.62949219 8.51574219 -5.57148438 7.34398437 -5.51171875 6.13671875 C-5 3 -5 3 -3.58203125 1.08203125 C-2 0 -2 0 0 0 Z " fill="#101010" transform="translate(309,511)"/>
<path d="M0 0 C0.99 0 1.98 0 3 0 C3 5.61 3 11.22 3 17 C1.35 17.33 -0.3 17.66 -2 18 C-2.20190089 11.64012196 -1.6277833 6.14778871 0 0 Z " fill="#10100F" transform="translate(249,513)"/>
<path d="M0 0 C0.66 0 1.32 0 2 0 C2.02709444 2.08326131 2.04643873 4.16662441 2.0625 6.25 C2.07410156 7.41015625 2.08570313 8.5703125 2.09765625 9.765625 C2.01782092 12.40977128 1.78643778 14.49826091 1 17 C-0.32 17 -1.64 17 -3 17 C-3.34548714 10.66606918 -2.29342747 5.89738492 0 0 Z " fill="#3A3939" transform="translate(216,517)"/>
<path d="M0 0 C0.66 0 1.32 0 2 0 C2 3.96 2 7.92 2 12 C0.68 12.33 -0.64 12.66 -2 13 C-2.05391993 11.20866022 -2.09275571 9.41686101 -2.125 7.625 C-2.14820313 6.62726562 -2.17140625 5.62953125 -2.1953125 4.6015625 C-2 2 -2 2 0 0 Z " fill="#141313" transform="translate(231,520)"/>
<path d="M0 0 C0.33 0 0.66 0 1 0 C1 3.63 1 7.26 1 11 C-0.65 11.33 -2.3 11.66 -4 12 C-3.27272727 3.27272727 -3.27272727 3.27272727 0 0 Z " fill="#060605" transform="translate(328,514)"/>
<path d="M0 0 C0.33 0 0.66 0 1 0 C1.08086147 1.79093191 1.13912702 3.58289628 1.1875 5.375 C1.22230469 6.37273438 1.25710937 7.37046875 1.29296875 8.3984375 C1.19628906 9.25695312 1.09960938 10.11546875 1 11 C0.01 11.66 -0.98 12.32 -2 13 C-2.05447047 11.58376784 -2.09300508 10.16691809 -2.125 8.75 C-2.14820313 7.96109375 -2.17140625 7.1721875 -2.1953125 6.359375 C-1.9828378 3.79268059 -1.28654105 2.2083933 0 0 Z " fill="#141313" transform="translate(216,517)"/>
<path d="M0 0 C0.66 0 1.32 0 2 0 C2 2.64 2 5.28 2 8 C1.01 8.33 0.02 8.66 -1 9 C-0.67 6.03 -0.34 3.06 0 0 Z " fill="#D0D0D0" transform="translate(291,340)"/>
</svg>
