<?xml version="1.0" encoding="UTF-8"?>
<svg version="1.1" xmlns="http://www.w3.org/2000/svg" width="1024" height="1024">
<path d="M0 0 C0.91201172 0.40927734 1.82402344 0.81855469 2.76367188 1.24023438 C38.86280098 17.52023377 72.72044649 39.51720744 103 65 C103.52770996 65.43747559 104.05541992 65.87495117 104.59912109 66.32568359 C113.37974626 73.60785673 121.55327107 81.33109491 129.52294922 89.49023438 C132.57479776 92.60967758 135.67208058 95.68032437 138.796875 98.7265625 C144.48087428 104.28626911 149.78837192 109.94120214 154.73828125 116.1796875 C156.73158907 118.66529759 158.7881316 121.07842814 160.88012695 123.48095703 C221.7072676 193.7069804 259.06833525 294.47814557 259.16796875 387.203125 C259.17129715 388.32402527 259.17462555 389.44492554 259.17805481 390.59979248 C259.18308084 392.95942785 259.18546449 395.31907022 259.18530273 397.67871094 C259.18746923 401.19999659 259.20561703 404.72095785 259.22460938 408.2421875 C259.27741556 428.95609323 258.09344761 449.48091541 254.75 469.9375 C254.64395447 470.59878906 254.53790894 471.26007813 254.4286499 471.94140625 C243.15231327 541.97055038 214.77067052 610.00157989 171 666 C170.14289893 667.11302703 169.28614538 668.22632172 168.4296875 669.33984375 C155.72017946 685.77802315 141.90393416 701.15407278 127.25 715.875 C126.55302002 716.57665283 125.85604004 717.27830566 125.13793945 718.0012207 C120.58758092 722.53755656 115.87440339 726.8160006 111 731 C109.91715381 731.94959234 108.83507819 732.90006435 107.75390625 733.8515625 C98.81107413 741.65151403 89.51948382 748.91879952 80 756 C79.41814941 756.43521973 78.83629883 756.87043945 78.23681641 757.31884766 C47.45436763 780.23537709 12.88977894 799.73823159 -23.14453125 812.94384766 C-25.99463307 813.99801494 -28.82529861 815.09477778 -31.65625 816.19921875 C-63.84191582 828.53229586 -97.97700328 836.05520868 -132.125 840.25 C-132.80333893 840.33344666 -133.48167786 840.41689331 -134.18057251 840.50286865 C-151.31637001 842.57821138 -168.26099112 843.2073568 -185.5 843.1875 C-186.4731012 843.18689575 -187.44620239 843.1862915 -188.4487915 843.18566895 C-203.06394759 843.16106986 -217.47947874 842.77232233 -232 841 C-233.13405273 840.87109375 -234.26810547 840.7421875 -235.43652344 840.609375 C-299.9697203 833.21262758 -361.37006895 811.7472463 -416.875 778.1875 C-417.74671844 777.66162292 -417.74671844 777.66162292 -418.63604736 777.12512207 C-426.37709745 772.43633305 -433.7358807 767.39200729 -441 762 C-442.18753906 761.15728418 -443.37836894 760.31916163 -444.57421875 759.48828125 C-456.63601416 751.05864506 -467.91709701 741.72316868 -479.0625 732.125 C-479.65732178 731.61412842 -480.25214355 731.10325684 -480.86499023 730.5769043 C-484.46183839 727.44936449 -487.84069978 724.17246349 -491.18408203 720.77685547 C-493.04646539 718.95453414 -494.97787812 717.25678596 -496.95703125 715.5625 C-501.13929622 711.94866893 -504.92565844 708.04493035 -508.6875 704 C-509.37884033 703.25943359 -510.07018066 702.51886719 -510.7824707 701.75585938 C-521.63266379 690.07122794 -531.78512449 678.02299497 -541.32324219 665.24316406 C-543.04194765 662.9438825 -544.7745714 660.65552514 -546.5078125 658.3671875 C-573.33055102 622.73879958 -593.06669877 582.92469485 -608 541 C-608.37108887 539.96617187 -608.74217773 538.93234375 -609.12451172 537.8671875 C-639.00074786 453.45890022 -637.33911388 358.2533615 -585.9375 208 C-572.51948465 180.26500089 -556.10173478 154.17412822 -537 130 C-536.34644531 129.16339844 -535.69289063 128.32679688 -535.01953125 127.46484375 C-519.13026171 107.31659475 -501.63503609 87.57913602 -482 71 C-481.02160156 70.1440625 -480.04320312 69.288125 -479.03515625 68.40625 C-432.57706445 27.83903878 -377.9472804 -2.77063872 -319 -21 C-318.17145508 -21.2573291 -317.34291016 -21.5146582 -316.48925781 -21.77978516 C-292.78846036 -29.05214411 -268.5942671 -33.97628048 -244 -37 C-242.80890625 -37.15098145 -241.6178125 -37.30196289 -240.390625 -37.45751953 C-158.50816595 -47.46609542 -74.99254534 -34.09681509 0 0 Z M-294 56 C-296.50319416 59.72427496 -297.5227566 62.74180734 -298.25 67.15234375 C-300.42171306 79.12782535 -303.82704564 90.82291125 -307 102.5625 C-307.49589127 104.40627228 -307.49589127 104.40627228 -308.00180054 106.28729248 C-321.97185167 158.22161246 -321.97185167 158.22161246 -328 176 C-328.66 176 -329.32 176 -330 176 C-329.67 175.34 -329.34 174.68 -329 174 C-328.65613699 167.87114759 -329.55025126 162.7012946 -331.1875 156.8125 C-331.41163574 155.9875 -331.63577148 155.1625 -331.86669922 154.3125 C-334.88161466 141.4883242 -334.88161466 141.4883242 -342 131 C-344.73940116 136.70578127 -346.02085508 142.2233724 -347.125 148.4375 C-347.29386719 149.34048828 -347.46273437 150.24347656 -347.63671875 151.17382812 C-349.03953416 158.80094655 -350.14356078 166.21816478 -350.0625 174 C-350.05347656 175.134375 -350.04445313 176.26875 -350.03515625 177.4375 C-350.02355469 178.283125 -350.01195312 179.12875 -350 180 C-349.34 180 -348.68 180 -348 180 C-347.67 184.95 -347.34 189.9 -347 195 C-344.69 195.33 -342.38 195.66 -340 196 C-340.10528174 208.72579122 -342.80708056 219.72510429 -346.5625 231.8125 C-347.10957881 233.61839182 -347.65497214 235.42479505 -348.19873047 237.23168945 C-349.28013368 240.81757572 -350.37018279 244.40063134 -351.46826172 247.98144531 C-352.8414557 252.46655063 -354.18274095 256.96025877 -355.50390625 261.4609375 C-355.86734131 262.6986792 -356.23077637 263.9364209 -356.60522461 265.21166992 C-356.94175049 266.35869385 -357.27827637 267.50571777 -357.625 268.6875 C-361.1090554 280.50502731 -361.1090554 280.50502731 -363 286 C-360.03 286.99 -357.06 287.98 -354 289 C-354 304.18 -354 319.36 -354 335 C-366.1875 337.3125 -366.1875 337.3125 -369.94213867 338.02075195 C-370.9654126 338.21628662 -371.98868652 338.41182129 -373.04296875 338.61328125 C-374.06414795 338.80704346 -375.08532715 339.00080566 -376.13745117 339.20043945 C-381.78093224 340.36865894 -387.38835445 341.6884011 -393 343 C-393.04225708 342.3825441 -393.08451416 341.7650882 -393.12805176 341.12892151 C-394.54198371 320.6115142 -396.13500186 300.109191 -397.79850769 279.61063194 C-398.19358215 274.74219861 -398.58502618 269.87353131 -398.96826172 265.00415039 C-399.34546106 260.21206861 -399.73107027 255.42073491 -400.12284851 250.62982368 C-400.26933663 248.82112872 -400.41285266 247.01219042 -400.55329895 245.20301628 C-400.74812951 242.70093291 -400.95376319 240.19996357 -401.16210938 237.69897461 C-401.24479317 236.58891808 -401.24479317 236.58891808 -401.32914734 235.45643616 C-401.63933362 231.87269336 -401.96031107 230.0595334 -404 227 C-405.36571123 237.66027121 -406.73087946 248.32061182 -408.09541702 258.98103333 C-408.7295397 263.93497876 -409.36382637 268.88890306 -409.99853516 273.84277344 C-411.55958013 286.02743876 -413.11685366 298.21257778 -414.66854858 310.3984375 C-414.99254204 312.94146246 -415.31713809 315.48440989 -415.6418457 318.02734375 C-416.12879658 321.84301782 -416.61311205 325.65901689 -417.0951767 329.47531128 C-417.26921092 330.85019623 -417.44408123 332.22497564 -417.61985016 333.59963989 C-417.85796152 335.46326386 -418.09264966 337.32732427 -418.32714844 339.19140625 C-418.45812927 340.22467041 -418.58911011 341.25793457 -418.72406006 342.32250977 C-419.06834413 345.21454227 -419.06834413 345.21454227 -419 349 C-419.60626221 349.10231934 -420.21252441 349.20463867 -420.8371582 349.31005859 C-429.35278078 350.79846928 -437.76358618 352.69786547 -446.1875 354.625 C-447.63081001 354.95334208 -449.07416909 355.28146852 -450.51757812 355.609375 C-454.01238517 356.40337591 -457.50614575 357.20177062 -461 358 C-461 348.76 -461 339.52 -461 330 C-460.01 329.67 -459.02 329.34 -458 329 C-458.60236456 321.35092616 -460.82659124 314.31400895 -463.0625 307 C-463.62807617 305.12248047 -463.62807617 305.12248047 -464.20507812 303.20703125 C-465.13100339 300.13624112 -466.0627865 297.06735999 -467 294 C-467.66 294 -468.32 294 -469 294 C-470.12303294 298.18036896 -471.24398036 302.36128996 -472.36303711 306.54272461 C-472.74365537 307.96377494 -473.12483327 309.3846755 -473.5065918 310.80541992 C-474.05666565 312.8529569 -474.60469433 314.90103216 -475.15234375 316.94921875 C-475.6472229 318.79519653 -475.6472229 318.79519653 -476.15209961 320.6784668 C-476.85824111 323.44467906 -477.47617361 326.19461867 -478 329 C-477.01 329.66 -476.02 330.32 -475 331 C-474.09946216 335.99307688 -474.16893976 341.12075553 -474.125 346.1875 C-474.11543274 346.93921478 -474.10586548 347.69092957 -474.0960083 348.46542358 C-474.009071 365.82091418 -479.20816493 380.21897146 -486 396 C-486.67201608 397.66451693 -487.34063141 399.3304326 -488 401 C-489.32 398.36 -490.64 395.72 -492 393 C-499.26689397 403.90034095 -496.20987762 424.31153385 -496.56149292 437.18972778 C-496.86114876 448.13887463 -497.268228 459.07012892 -498 470 C-499.04800781 470.13277344 -500.09601563 470.26554687 -501.17578125 470.40234375 C-502.55470778 470.58057235 -503.93361293 470.75896641 -505.3125 470.9375 C-506.00279297 471.02451172 -506.69308594 471.11152344 -507.40429688 471.20117188 C-510.40142288 471.59210135 -513.12450119 472.0415004 -516 473 C-515.98699923 476.10068377 -515.83403765 479.00383927 -515 482 C-512.2145143 483.95576656 -510.42208464 485 -507 485 C-507 512.72 -507 540.44 -507 569 C-510.96 569 -514.92 569 -519 569 C-523.01588665 572.32729875 -523.01588665 572.32729875 -523.49447632 574.99716187 C-523.49162628 575.69854279 -523.48877625 576.39992371 -523.48583984 577.12255859 C-523.4919931 577.92374115 -523.49814636 578.72492371 -523.50448608 579.55038452 C-523.48292953 580.83642075 -523.48292953 580.83642075 -523.4609375 582.1484375 C-523.46002106 583.03858551 -523.45910461 583.92873352 -523.4581604 584.84585571 C-523.45212481 586.72704403 -523.43638002 588.60822275 -523.41162109 590.48925781 C-523.37521846 593.35778538 -523.37060118 596.225016 -523.37109375 599.09375 C-523.36125785 600.92449025 -523.34959879 602.7552218 -523.3359375 604.5859375 C-523.33371185 605.43924652 -523.33148621 606.29255554 -523.32919312 607.17172241 C-523.20275245 615.17341047 -521.32604705 620.18372153 -515.9375 626.1875 C-514.92872277 627.34160538 -513.92092224 628.49656514 -512.9140625 629.65234375 C-512.41551758 630.22065918 -511.91697266 630.78897461 -511.40332031 631.37451172 C-509.47109733 633.61263639 -507.6464371 635.93102548 -505.8125 638.25 C-494.95242046 651.51291943 -482.59318032 663.5015774 -470.5 675.625 C-469.89199554 676.23568329 -469.28399109 676.84636658 -468.65756226 677.47555542 C-462.28064851 683.87376749 -455.88947157 690.1488988 -449 696 C-447.43439785 697.43412078 -445.87142515 698.87112396 -444.3125 700.3125 C-401.3163037 738.99600792 -321.66554653 788 -262 788 C-262.00276538 787.06849404 -262.00276538 787.06849404 -262.00558662 786.11816978 C-262.04991449 770.95003747 -262.08292854 755.78192529 -262.10362434 740.61374474 C-262.1139008 733.27827999 -262.12789098 725.94285871 -262.15087891 718.60742188 C-262.17092474 712.20771173 -262.18374276 705.80803309 -262.18817699 699.40829241 C-262.19076559 696.02526166 -262.19677247 692.64232096 -262.21146011 689.25931931 C-262.31959208 661.24992255 -260.45960647 635.8117503 -239.74609375 614.7109375 C-238.83988281 613.81632813 -237.93367188 612.92171875 -237 612 C-235.90365234 610.90558594 -235.90365234 610.90558594 -234.78515625 609.7890625 C-221.75044404 597.50681971 -203.67000462 587.3839627 -185.6875 585.6875 C-169.69956536 587.04240972 -155.26900978 595.00161567 -143 605 C-142.16082031 605.67546875 -141.32164062 606.3509375 -140.45703125 607.046875 C-121.03844321 623.54514825 -111.33126815 646.15596278 -109.18878937 671.20476532 C-108.52142141 681.08588357 -108.63233786 691.01528799 -108.5859375 700.9140625 C-108.5671871 703.46667072 -108.54761094 706.019273 -108.5272522 708.5718689 C-108.48150933 714.55299547 -108.44395749 720.53413618 -108.41057932 726.51534116 C-108.37203331 733.33793357 -108.32271122 740.16043572 -108.27259517 746.9829514 C-108.16994997 760.9885669 -108.0804759 774.99424079 -108 789 C-92.57076283 785.84984566 -77.29021037 782.64648187 -62.3125 777.75 C-61.22234589 777.40000443 -61.22234589 777.40000443 -60.11016846 777.04293823 C-6.38952983 759.78446552 42.26878147 731.8576995 84.41015625 694.41064453 C85.80785249 693.1704896 87.21564723 691.94173567 88.625 690.71484375 C93.82740186 686.13707237 98.77642447 681.32332269 103.6875 676.4375 C104.30560547 675.82406738 104.92371094 675.21063477 105.56054688 674.57861328 C109.27936528 670.8468685 112.79483816 666.99262237 116.23852539 663.0065918 C119.18964715 659.64480805 122.29148159 656.42735343 125.375 653.1875 C130.53667469 647.73179782 135.41566531 642.18844812 140.08984375 636.30859375 C141.81739559 634.22069367 143.60108385 632.36488113 145.5625 630.5 C146.71053669 629.33550144 147.85600786 628.16847214 149 627 C149.68247803 626.36795654 150.36495605 625.73591309 151.06811523 625.0847168 C159.66799124 615.64122918 157.88819194 604.32905464 157.5 592.3125 C157.4598148 590.14655031 157.42332295 587.98052878 157.390625 585.81445312 C157.30304834 580.541385 157.169678 575.27103165 157 570 C155.58461283 569.66127487 154.16762037 569.32925376 152.75 569 C151.96109375 568.814375 151.1721875 568.62875 150.359375 568.4375 C147.74443998 567.87845172 147.74443998 567.87845172 144 568 C144.00523682 567.37697998 144.01047363 566.75395996 144.01586914 566.11206055 C144.1298615 550.00450706 143.92900955 533.91539232 143.5625 517.8125 C143.54285187 516.90623871 143.52320374 515.99997742 143.50296021 515.06625366 C143.3884283 509.85967464 143.24252074 504.6553659 143.06777954 499.45046997 C143.00126333 497.04567391 142.97920306 494.64363517 142.96362305 492.23803711 C142.81870531 483.49145977 141.86711679 477.53044732 135.6875 470.9375 C134.41481879 469.44949516 133.14402486 467.95987433 131.875 466.46875 C131.23046875 465.73527344 130.5859375 465.00179688 129.921875 464.24609375 C126.81870223 460.61941826 124.01214903 456.78234222 121.1875 452.9375 C118.27825206 448.80941405 118.27825206 448.80941405 115 445 C113.44246949 444.77329092 111.87622641 444.60564908 110.30859375 444.46484375 C109.45837646 444.38613037 108.60815918 444.30741699 107.73217773 444.22631836 C106.64493408 444.1310083 105.55769043 444.03569824 104.4375 443.9375 C100.993125 443.628125 97.54875 443.31875 94 443 C94 431.78 94 420.56 94 409 C95.32 408.34 96.64 407.68 98 407 C97.40412458 401.73861648 96.56968267 396.66749501 95.3984375 391.49609375 C95.07305582 390.03980966 94.74812551 388.58342467 94.42358398 387.12695312 C94.2528537 386.36519775 94.08212341 385.60344238 93.90621948 384.81860352 C86.02292125 349.48302234 80.4154088 313.783489 75 278 C74.67 278 74.34 278 74 278 C73.91531967 278.62305527 73.83063934 279.24611053 73.74339294 279.88804626 C66.44224505 333.52388105 66.44224505 333.52388105 62.3125 357.4375 C62.16996796 358.26325531 62.02743591 359.08901062 61.88058472 359.93978882 C60.47855108 368.01456221 59.00751617 376.0732686 57.41796875 384.11328125 C57.05674927 385.94451538 57.05674927 385.94451538 56.68823242 387.81274414 C56.24760373 390.01338668 55.79688054 392.21204693 55.33325195 394.40795898 C55.14077881 395.35098877 54.94830566 396.29401855 54.75 397.265625 C54.57984375 398.06774414 54.4096875 398.86986328 54.234375 399.69628906 C53.96639726 402.33028694 54.36534404 404.44210982 55 407 C55.99 407.33 56.98 407.66 58 408 C57.98259766 409.25490234 57.98259766 409.25490234 57.96484375 410.53515625 C57.89600798 419.41497008 58.30582756 428.14930134 59 437 C58.06027344 436.84660156 57.12054687 436.69320313 56.15234375 436.53515625 C51.30704669 435.84297096 46.4482211 435.65206371 41.5625 435.4375 C40.64017578 435.39431641 39.71785156 435.35113281 38.76757812 435.30664062 C36.51183837 435.20145069 34.25600501 435.09930893 32 435 C32.06870337 428.91235009 32.15658406 422.82539852 32.26245117 416.73828125 C32.29575823 414.66641973 32.32377197 412.59446621 32.34643555 410.52246094 C32.37987563 407.54842827 32.43218505 404.57524321 32.48828125 401.6015625 C32.49467117 400.67131256 32.5010611 399.74106262 32.50764465 398.78262329 C32.52743881 397.92188202 32.54723297 397.06114075 32.56762695 396.17431641 C32.57873001 395.41486725 32.58983307 394.65541809 32.60127258 393.87295532 C33 392 33 392 36 390 C35.26186091 383.77138184 34.32770828 377.59000277 33.328125 371.3984375 C32.99186018 369.29407897 32.65593656 367.1896659 32.3203125 365.08520508 C32.14532227 363.98914948 31.97033203 362.89309387 31.79003906 361.76382446 C28.14433007 338.88646492 24.84936707 315.989783 22 293 C21.67 293 21.34 293 21 293 C20.9359346 293.56041489 20.8718692 294.12082977 20.80586243 294.69822693 C20.11240858 300.76149308 19.4169116 306.82452278 18.72024536 312.88742065 C18.44897106 315.24929985 18.17803461 317.61121787 17.90744019 319.97317505 C16.47626784 332.45776743 15.02739127 344.9387953 13.453125 357.40625 C13.33402267 358.35500504 13.21492035 359.30376007 13.09220886 360.28126526 C12.53344452 364.72785846 11.96659132 369.1731495 11.38598633 373.61694336 C11.1853879 375.20161946 10.98509279 376.786334 10.78515625 378.37109375 C10.68966492 379.07709717 10.59417358 379.78310059 10.49578857 380.51049805 C10.03314541 384.24752323 10.01083812 387.35518698 11 391 C11.66 391 12.32 391 13 391 C13.33 396.28 13.66 401.56 14 407 C10.37 407 6.74 407 3 407 C3 370.37 3 333.74 3 296 C4.98 295.505 4.98 295.505 7 295 C6.67 288.07 6.34 281.14 6 274 C7.65 273.34 9.3 272.68 11 272 C8.98543612 258.9945735 5.95896568 246.3301687 2.73117065 233.57809448 C-3.18565095 210.14638425 -8.40123169 186.63734994 -13.03564453 162.92138672 C-14.08949795 157.52895794 -15.16677207 152.14128685 -16.24609375 146.75390625 C-16.50955345 145.438209 -16.50955345 145.438209 -16.77833557 144.09593201 C-17.18534386 142.06391196 -17.59263801 140.03194917 -18 138 C-18.33 138 -18.66 138 -19 138 C-19.12702049 138.81089333 -19.12702049 138.81089333 -19.25660706 139.63816833 C-23.3803846 165.91135553 -27.68163851 192.047398 -33.54699707 217.99304199 C-34.86709997 223.8415496 -36.16629552 229.69471116 -37.46139526 235.54879761 C-37.92392106 237.62650226 -38.39504591 239.70210622 -38.86743164 241.77758789 C-39.14707764 243.03047607 -39.42672363 244.28336426 -39.71484375 245.57421875 C-40.08790649 247.22296997 -40.08790649 247.22296997 -40.46850586 248.9050293 C-41.0002432 252.00141616 -41.09690684 254.8651079 -41 258 C-41.66 258 -42.32 258 -43 258 C-43.36738281 256.16115234 -43.36738281 256.16115234 -43.7421875 254.28515625 C-45.09664371 248.1901033 -47.1109806 242.34078301 -49.125 236.4375 C-49.49753906 235.33341797 -49.87007812 234.22933594 -50.25390625 233.09179688 C-51.16515243 230.39310627 -52.08059524 227.69591967 -53 225 C-56.13550851 228.13550851 -57.18378578 232.39996565 -58.70117188 236.50195312 C-60.04578341 240.01307428 -61.22989345 242.47265709 -64 245 C-64.10231934 244.35313232 -64.20463867 243.70626465 -64.31005859 243.03979492 C-65.56218706 235.61740432 -67.45515983 228.51442886 -69.625 221.3125 C-69.94984375 220.21744141 -70.2746875 219.12238281 -70.609375 217.99414062 C-71.40111251 215.32784812 -72.19804874 212.66323461 -73 210 C-75.33499383 213.85542518 -75.9334434 218.08020205 -76.734375 222.4453125 C-76.89307068 223.28036819 -77.05176636 224.11542389 -77.215271 224.9757843 C-77.55524033 226.76482278 -77.89283282 228.55431427 -78.22827148 230.34420776 C-81.2926053 246.67698512 -84.61969415 262.89449971 -88.57617188 279.03686523 C-89.07034382 280.99109899 -89.07034382 280.99109899 -89 283 C-87.02 283.33 -85.04 283.66 -83 284 C-82.14922783 308.93478357 -81.73250006 333.86303884 -81.46777344 358.8102417 C-81.41634151 363.59227027 -81.36130965 368.37425753 -81.30664062 373.15625 C-81.20103589 382.43746425 -81.09920521 391.71871529 -81 401 C-79.68 401.66 -78.36 402.32 -77 403 C-77 411.25 -77 419.5 -77 428 C-82.61 429.65 -88.22 431.3 -94 433 C-94 428.38 -94 423.76 -94 419 C-93.34 418.67 -92.68 418.34 -92 418 C-91.91296177 414.56265937 -91.85959728 411.12560163 -91.8125 407.6875 C-91.78736328 406.71103516 -91.76222656 405.73457031 -91.73632812 404.72851562 C-91.72666016 403.79072266 -91.71699219 402.85292969 -91.70703125 401.88671875 C-91.6913208 401.02264404 -91.67561035 400.15856934 -91.65942383 399.26831055 C-92.08411728 396.43976083 -92.98934728 395.97017375 -95 394 C-96.06987292 391.68943259 -97.00353296 389.45006403 -97.875 387.06640625 C-98.134021 386.36423477 -98.39304199 385.66206329 -98.65991211 384.93861389 C-101.80568609 376.11834298 -103.90139025 367.05161113 -106 357.9375 C-106.43127625 356.09842276 -106.86275669 354.25939339 -107.29443359 352.42041016 C-110.95624864 336.69429153 -114.14089503 320.89064196 -117 305 C-118.71225012 308.06317923 -119.46285642 310.78935409 -120.04296875 314.2421875 C-120.22585449 315.29317627 -120.40874023 316.34416504 -120.59716797 317.42700195 C-120.79197754 318.56484131 -120.98678711 319.70268066 -121.1875 320.875 C-124.65987564 340.26746877 -128.75651382 359.57096795 -134.6875 378.375 C-134.96062012 379.24165283 -135.23374023 380.10830566 -135.51513672 381.0012207 C-139.68835335 393.68835335 -139.68835335 393.68835335 -143 397 C-143.15655027 398.48638992 -143.25066943 399.97949127 -143.31640625 401.47265625 C-143.35830078 402.37177734 -143.40019531 403.27089844 -143.44335938 404.19726562 C-143.48267578 405.14279297 -143.52199219 406.08832031 -143.5625 407.0625 C-143.60568359 408.01189453 -143.64886719 408.96128906 -143.69335938 409.93945312 C-143.79979276 412.29281353 -143.90181008 414.64628354 -144 417 C-142.68 417.33 -141.36 417.66 -140 418 C-140 433.51 -140 449.02 -140 465 C-153.2 464.67 -166.4 464.34 -180 464 C-181.19148936 410.59574468 -181.19148936 410.59574468 -181 389 C-179.35 388.34 -177.7 387.68 -176 387 C-176.26139771 386.07501709 -176.26139771 386.07501709 -176.52807617 385.13134766 C-180.28559972 371.78272426 -183.91448946 358.41032133 -187.35546875 344.9765625 C-187.64514023 343.84872345 -187.93481171 342.7208844 -188.23326111 341.55886841 C-189.70100864 335.84204095 -191.15986015 330.12315948 -192.60620117 324.40087891 C-193.15118495 322.27237257 -193.69649892 320.14395075 -194.2421875 318.015625 C-194.49087082 317.01898834 -194.73955414 316.02235168 -194.99577332 314.99551392 C-195.2303273 314.08723846 -195.46488129 313.17896301 -195.70654297 312.24316406 C-196.01010208 311.04533295 -196.01010208 311.04533295 -196.3197937 309.82330322 C-196.84016254 307.79587891 -196.84016254 307.79587891 -199 307 C-199.19156677 307.76626709 -199.38313354 308.53253418 -199.58050537 309.32202148 C-206.05367025 335.21468099 -212.52683512 361.10734049 -219 387 C-218.360625 387.309375 -217.72125 387.61875 -217.0625 387.9375 C-215 390 -215 390 -214 399 C-219.94 398.34 -225.88 397.68 -232 397 C-232.66 361.69 -233.32 326.38 -234 290 C-231.03 289.34 -228.06 288.68 -225 288 C-223.26262873 284.52525745 -225.4136237 280.79998561 -226.53515625 277.2578125 C-227.10136623 275.42249119 -227.66659989 273.58686846 -228.23095703 271.75097656 C-228.52544739 270.79856079 -228.81993774 269.84614502 -229.12335205 268.86486816 C-230.50238565 264.35821363 -231.81255766 259.83221982 -233.12109375 255.3046875 C-233.66076139 253.44454315 -234.20055909 251.58443652 -234.74047852 249.72436523 C-235.01594513 248.7745578 -235.29141174 247.82475037 -235.57522583 246.84616089 C-240.65266222 229.35070417 -245.8095832 211.88104063 -251.0625 194.4375 C-256.91862381 174.98198641 -262.72564458 155.51226373 -268.49557495 136.03103638 C-269.39732038 132.98652129 -270.30008619 129.94231224 -271.20388794 126.89840698 C-275.91966495 111.01321493 -280.57403342 95.11294065 -285.0703125 79.1640625 C-285.26434536 78.4776405 -285.45837822 77.79121849 -285.65829086 77.08399582 C-286.20430869 75.1498968 -286.74700377 73.21486066 -287.28955078 71.27978516 C-287.59692169 70.18413239 -287.9042926 69.08847961 -288.22097778 67.95962524 C-288.9167143 65.31641518 -289.49899288 62.68605314 -290 60 C-290.99 60 -291.98 60 -293 60 C-293.33 58.68 -293.66 57.36 -294 56 Z " fill="#020202" transform="translate(695,115)"/>
<path d="M0 0 C2.12109929 2.12109929 2.57700841 3.23669699 3.49804688 6.02661133 C3.77394653 6.85569504 4.04984619 7.68477875 4.33410645 8.53898621 C4.62603882 9.44006607 4.91797119 10.34114594 5.21875 11.26953125 C5.68033508 12.67595634 5.68033508 12.67595634 6.15124512 14.11079407 C9.45192018 24.24816705 12.50268697 34.45708353 15.5 44.6875 C15.77903168 45.63591766 16.05806335 46.58433533 16.34555054 47.56149292 C19.76875638 59.20078407 23.14217079 70.85150118 26.3125 82.5625 C26.59609375 83.60688232 26.8796875 84.65126465 27.171875 85.72729492 C29 92.61177213 29 92.61177213 29 96 C26.525 96.99 26.525 96.99 24 98 C23.99576806 98.76698432 23.99153612 99.53396864 23.98717594 100.32419491 C23.88401332 118.95941572 23.77539746 137.59459738 23.66066074 156.22975063 C23.60530812 165.24145123 23.55182283 174.25315578 23.50268555 183.26489258 C23.45986863 191.11662036 23.41359704 198.96831876 23.36312145 206.82000118 C23.33650036 210.98001726 23.31164687 215.14002744 23.29092598 219.30007744 C23.27139094 223.21111269 23.24725677 227.12209189 23.21950912 231.03307724 C23.21012202 232.47266056 23.20245276 233.91225619 23.19658089 235.35185814 C23.18834788 237.30897298 23.17348225 239.26605664 23.15821838 241.22312927 C23.15176583 242.32098472 23.14531328 243.41884016 23.1386652 244.54996395 C23 247 23 247 22 248 C20.46218409 248.09902107 18.91990556 248.13079567 17.37890625 248.1328125 C16.44369141 248.13410156 15.50847656 248.13539063 14.54492188 248.13671875 C13.56072266 248.13285156 12.57652344 248.12898437 11.5625 248.125 C10.58216797 248.12886719 9.60183594 248.13273438 8.59179688 248.13671875 C7.65529297 248.13542969 6.71878906 248.13414062 5.75390625 248.1328125 C4.45948608 248.13112061 4.45948608 248.13112061 3.13891602 248.12939453 C1 248 1 248 -1 247 C-1 244.36 -1 241.72 -1 239 C-9.415 238.505 -9.415 238.505 -18 238 C-16.515 236.02 -16.515 236.02 -15 234 C-14.56195388 231.71069614 -14.56195388 231.71069614 -14.63923645 229.22906494 C-14.63511246 228.27276688 -14.63098846 227.31646881 -14.6267395 226.33119202 C-14.64291824 224.76781349 -14.64291824 224.76781349 -14.65942383 223.17285156 C-14.65898575 222.07011398 -14.65854767 220.9673764 -14.65809631 219.83122253 C-14.6601873 216.18417695 -14.68353371 212.53759034 -14.70703125 208.890625 C-14.71262608 206.36285656 -14.71689671 203.83508487 -14.71989441 201.30731201 C-14.73018075 195.33267947 -14.75382792 189.35824412 -14.78394288 183.3836906 C-14.81748772 176.58084852 -14.83397308 169.77799853 -14.84902918 162.97509432 C-14.88037764 148.98330495 -14.93313759 134.9916615 -15 121 C-15.66 120.67 -16.32 120.34 -17 120 C-17 112.74 -17 105.48 -17 98 C-19.31 97.34 -21.62 96.68 -24 96 C-20.56415077 81.0161937 -16.81591173 66.10934409 -13.08203125 51.19775391 C-12.17963088 47.59385865 -11.27935247 43.98943727 -10.37969971 40.38485527 C-9.67355909 37.55663636 -8.96627313 34.72870477 -8.25866699 31.9008522 C-7.76849445 29.94112882 -7.27924857 27.98117373 -6.79003906 26.02120972 C-4.61016139 17.32407253 -2.33228742 8.65729538 0 0 Z " fill="#040404" transform="translate(663,416)"/>
<path d="M0 0 C7.05314895 2.58615462 12.89977685 8.03665044 16.3125 14.75 C18.28005621 19.71166349 18.86941996 23.11711087 18.84765625 28.44921875 C18.84515869 29.70049561 18.84266113 30.95177246 18.84008789 32.2409668 C18.83098389 33.83207275 18.82187988 35.42317871 18.8125 37.0625 C18.791875 42.115625 18.77125 47.16875 18.75 52.375 C5.88 52.375 -6.99 52.375 -20.25 52.375 C-20.3325 47.79625 -20.415 43.2175 -20.5 38.5 C-20.53641602 37.07703613 -20.57283203 35.65407227 -20.61035156 34.18798828 C-20.70610173 23.14119911 -18.74506806 15.2073372 -11.0390625 7.140625 C-10.44867187 6.55796875 -9.85828125 5.9753125 -9.25 5.375 C-8.48816406 4.56289063 -8.48816406 4.56289063 -7.7109375 3.734375 C-5.19460252 1.28532171 -3.4955112 0.40332821 0 0 Z " fill="#070707" transform="translate(576.25,590.625)"/>
<path d="M0 0 C1.12284171 4.64639429 1.13207031 9.27107424 1.09765625 14.0234375 C1.0962413 14.76961334 1.09482635 15.51578918 1.09336853 16.28457642 C1.08780874 18.64809318 1.07526389 21.01151227 1.0625 23.375 C1.0574798 24.98567571 1.0529178 26.59635291 1.04882812 28.20703125 C1.03785251 32.13805799 1.02061596 36.06901248 1 40 C-1.97 40 -4.94 40 -8 40 C-8.04935509 34.62485095 -8.08569802 29.24983315 -8.10986328 23.87451172 C-8.11993484 22.04506127 -8.13359276 20.21562697 -8.15087891 18.38623047 C-8.17507677 15.76005066 -8.18647132 13.13408325 -8.1953125 10.5078125 C-8.20563507 9.68693146 -8.21595764 8.86605042 -8.22659302 8.02029419 C-8.22699184 6.01210858 -8.1224954 4.00444618 -8 2 C-5.44123378 -0.55876622 -3.37797483 -1.68898741 0 0 Z " fill="#242424" transform="translate(327,538)"/>
<path d="M0 0 C1.56590088 1.56590088 1.21845445 3.17097345 1.31640625 5.34765625 C1.35838135 6.25628418 1.40035645 7.16491211 1.44360352 8.10107422 C1.48283936 9.07834473 1.5220752 10.05561523 1.5625 11.0625 C1.6049585 12.05008301 1.64741699 13.03766602 1.69116211 14.05517578 C2.02554567 22.37506931 2.10734962 30.67444072 2 39 C-4.15234375 39.87890625 -4.15234375 39.87890625 -6 40 C-7 39 -7 39 -7.11352539 35.39819336 C-7.11336625 33.79540144 -7.10767063 32.1926044 -7.09765625 30.58984375 C-7.0962413 29.74780899 -7.09482635 28.90577423 -7.09336853 28.03822327 C-7.08775263 25.33794665 -7.07519748 22.63775172 -7.0625 19.9375 C-7.05748705 18.11132932 -7.05292379 16.28515734 -7.04882812 14.45898438 C-7.03777804 9.97262458 -7.02050279 5.48632616 -7 1 C-4.51588385 -0.24205807 -2.74800896 -0.14092354 0 0 Z " fill="#222121" transform="translate(307,539)"/>
<path d="M0 0 C1.57746049 3.15492098 1.26258881 6.56579156 1.3515625 10.03515625 C1.37471527 10.8290123 1.39786804 11.62286835 1.42172241 12.44078064 C1.46935881 14.11939125 1.51459328 15.79807148 1.55761719 17.47680664 C1.62482448 20.05576488 1.70253575 22.63426088 1.78125 25.21289062 C1.82615434 26.84112849 1.87044611 28.46938338 1.9140625 30.09765625 C1.93796051 30.87367691 1.96185852 31.64969757 1.98648071 32.44923401 C2.0301686 34.29897898 2.02054088 36.1498532 2 38 C1.505 38.495 1.505 38.495 1 39 C-1.64 39 -4.28 39 -7 39 C-7 26.79 -7 14.58 -7 2 C-3 0 -3 0 0 0 Z " fill="#232323" transform="translate(250,542)"/>
<path d="M0 0 C0.33 12.54 0.66 25.08 1 38 C-1.73247348 39.36623674 -3.98198902 39.128426 -7 39 C-8 38 -8 38 -8.11352539 34.39819336 C-8.11336625 32.79540144 -8.10767063 31.1926044 -8.09765625 29.58984375 C-8.0962413 28.74780899 -8.09482635 27.90577423 -8.09336853 27.03822327 C-8.08775263 24.33794665 -8.07519748 21.63775172 -8.0625 18.9375 C-8.05748705 17.11132932 -8.05292379 15.28515734 -8.04882812 13.45898438 C-8.03777804 8.97262458 -8.02050279 4.48632616 -8 0 C-5 -1 -5 -1 0 0 Z " fill="#191919" transform="translate(289,541)"/>
<path d="M0 0 C1.24473532 3.73420597 1.23209785 7.27365238 1.31640625 11.16796875 C1.33718735 11.96278152 1.35796844 12.7575943 1.37937927 13.57649231 C1.44472087 16.11340763 1.50368808 18.65042573 1.5625 21.1875 C1.60569986 22.90821372 1.64931463 24.62891708 1.69335938 26.34960938 C1.80038648 30.56630113 1.90169724 34.7830962 2 39 C-0.97 39 -3.94 39 -7 39 C-7.07403712 33.76728431 -7.12854783 28.53487199 -7.16479492 23.30175781 C-7.17990173 21.52077933 -7.20038835 19.73983816 -7.22631836 17.95898438 C-7.26261943 15.40225022 -7.27970688 12.8460069 -7.29296875 10.2890625 C-7.30845261 9.49005524 -7.32393646 8.69104797 -7.33988953 7.86782837 C-7.34057617 5.62353516 -7.34057617 5.62353516 -7 2 C-4 0 -4 0 0 0 Z " fill="#1D1D1D" transform="translate(269,541)"/>
<path d="M0 0 C2.5 0.125 2.5 0.125 3.5 1.125 C3.67244584 3.77754447 3.7839033 6.40666189 3.8515625 9.0625 C3.87471527 9.857771 3.89786804 10.65304199 3.92172241 11.47241211 C3.96942313 13.15699749 4.01464964 14.84165444 4.05761719 16.52636719 C4.12471995 19.11419985 4.20245289 21.70156256 4.28125 24.2890625 C4.32616267 25.92185747 4.37045447 27.55466966 4.4140625 29.1875 C4.43796051 29.96665771 4.46185852 30.74581543 4.48648071 31.54858398 C4.53017313 33.40688121 4.52053957 35.26630268 4.5 37.125 C3.5 38.125 3.5 38.125 -0.0625 38.1875 C-1.196875 38.166875 -2.33125 38.14625 -3.5 38.125 C-3.52464928 32.87394558 -3.54283568 27.62292455 -3.55493164 22.37182617 C-3.55997218 20.58405979 -3.56680454 18.79629755 -3.57543945 17.00854492 C-3.5875173 14.44448832 -3.59323094 11.88048603 -3.59765625 9.31640625 C-3.60281754 8.5122377 -3.60797882 7.70806915 -3.61329651 6.87953186 C-3.61349215 4.96098285 -3.56201983 3.04254632 -3.5 1.125 C-2.5 0.125 -2.5 0.125 0 0 Z " fill="#252525" transform="translate(229.5,543.875)"/>
<path d="M0 0 C1.32 0 2.64 0 4 0 C5.20587804 3.61763412 5.14332385 6.9301055 5.1328125 10.6953125 C5.13376923 11.44336151 5.13472595 12.19141052 5.13571167 12.96212769 C5.13639143 14.54067062 5.13455137 16.11921636 5.13037109 17.69775391 C5.1250049 20.12278455 5.13033064 22.54763125 5.13671875 24.97265625 C5.13605823 26.50520874 5.1347776 28.03776112 5.1328125 29.5703125 C5.13483673 30.29944855 5.13686096 31.02858459 5.13894653 31.77981567 C5.1149618 36.8850382 5.1149618 36.8850382 4 38 C2.33382885 38.04063832 0.66611905 38.042721 -1 38 C-2.03091213 30.33826102 -2.18336224 22.787701 -2.1875 15.0625 C-2.19974609 13.83208984 -2.21199219 12.60167969 -2.22460938 11.33398438 C-2.22750977 9.57731445 -2.22750977 9.57731445 -2.23046875 7.78515625 C-2.23457764 6.72176025 -2.23868652 5.65836426 -2.24291992 4.56274414 C-2 2 -2 2 0 0 Z " fill="#353536" transform="translate(211,545)"/>
<path d="M0 0 C2.5625 1.25 2.5625 1.25 5 3 C6.17794853 6.53384559 6.13264317 9.40277553 6.125 13.125 C6.12757813 14.38570312 6.13015625 15.64640625 6.1328125 16.9453125 C6 20 6 20 5 21 C3.31391034 21.07205511 1.62499341 21.08386068 -0.0625 21.0625 C-0.98160156 21.05347656 -1.90070312 21.04445313 -2.84765625 21.03515625 C-3.55792969 21.02355469 -4.26820313 21.01195312 -5 21 C-5.08089542 18.22858283 -5.14044062 15.45952181 -5.1875 12.6875 C-5.22520508 11.50897461 -5.22520508 11.50897461 -5.26367188 10.30664062 C-5.27333984 9.54931641 -5.28300781 8.79199219 -5.29296875 8.01171875 C-5.3086792 7.31522217 -5.32438965 6.61872559 -5.34057617 5.90112305 C-4.89567541 3.41765194 -3.927086 2.57335254 -2 1 C-1.34 0.67 -0.68 0.34 0 0 Z " fill="#262525" transform="translate(796,585)"/>
<path d="M0 0 C0.33 0 0.66 0 1 0 C1.02332763 19.40991412 1.0409785 38.81982541 1.05181217 58.22975063 C1.05697542 67.24146937 1.06401866 76.25317942 1.07543945 85.26489258 C1.08538541 93.1165955 1.09185322 100.96829214 1.09408849 108.82000118 C1.09539575 112.98003452 1.09848255 117.14004985 1.10573006 121.30007744 C1.11248889 125.21108412 1.11461724 129.12206527 1.11310768 133.03307724 C1.11338407 134.47267228 1.11539001 135.91226813 1.11920547 137.35185814 C1.12414051 139.30894233 1.12239807 141.26604004 1.12025452 143.22312927 C1.12117631 144.32098472 1.1220981 145.41884016 1.12304783 146.54996395 C1 149 1 149 0 150 C-1.53781591 150.09902107 -3.08009444 150.13079567 -4.62109375 150.1328125 C-6.02391602 150.13474609 -6.02391602 150.13474609 -7.45507812 150.13671875 C-8.43927734 150.13285156 -9.42347656 150.12898437 -10.4375 150.125 C-11.41783203 150.12886719 -12.39816406 150.13273438 -13.40820312 150.13671875 C-14.34470703 150.13542969 -15.28121094 150.13414062 -16.24609375 150.1328125 C-17.54051392 150.13112061 -17.54051392 150.13112061 -18.86108398 150.12939453 C-21 150 -21 150 -23 149 C-22.505 147.02 -22.505 147.02 -22 145 C-22 145.99 -22 146.98 -22 148 C-15.07 148 -8.14 148 -1 148 C-0.67 99.16 -0.34 50.32 0 0 Z " fill="#A1A1A3" transform="translate(685,514)"/>
<path d="M0 0 C2.37933612 1.07453889 3.39354967 1.73688901 4.9375 3.875 C5.1547101 6.52496326 5.22101554 8.92576558 5.125 11.5625 C5.11146484 12.26439453 5.09792969 12.96628906 5.08398438 13.68945312 C5.04870182 15.41829829 4.99489583 17.14674765 4.9375 18.875 C1.44365721 20.03961426 -1.39905389 20.01068319 -5.0625 19.875 C-7.11225978 17.82524022 -6.33842642 13.80397437 -6.375 11 C-6.40400391 10.26652344 -6.43300781 9.53304687 -6.46289062 8.77734375 C-6.52691063 3.37011547 -6.52691063 3.37011547 -4.171875 0.859375 C-2.0625 -0.125 -2.0625 -0.125 0 0 Z " fill="#262626" transform="translate(759.0625,581.125)"/>
<path d="M0 0 C2.56269497 1.04109483 4.02610343 2.02610343 6 4 C6.14507695 6.74485593 6.18652423 9.38480543 6.125 12.125 C6.11597656 12.87910156 6.10695313 13.63320313 6.09765625 14.41015625 C6.0740687 16.27357254 6.03819719 18.13682593 6 20 C4.35425434 20.02688151 2.70838587 20.04634123 1.0625 20.0625 C0.14597656 20.07410156 -0.77054688 20.08570313 -1.71484375 20.09765625 C-4 20 -4 20 -5 19 C-5.15349136 16.52642763 -5.23159885 14.09995481 -5.25 11.625 C-5.270625 10.93921875 -5.29125 10.2534375 -5.3125 9.546875 C-5.35189706 4.4843527 -5.35189706 4.4843527 -3.609375 2.0859375 C-2 1 -2 1 0 0 Z " fill="#252525" transform="translate(706,581)"/>
<path d="M0 0 C2.4375 0.75 2.4375 0.75 4.4375 2.75 C4.58257695 5.49485593 4.62402423 8.13480543 4.5625 10.875 C4.55347656 11.62910156 4.54445313 12.38320313 4.53515625 13.16015625 C4.5115687 15.02357254 4.47569719 16.88682593 4.4375 18.75 C1.1375 18.75 -2.1625 18.75 -5.5625 18.75 C-5.64321788 15.95775927 -5.70285408 13.16783434 -5.75 10.375 C-5.77513672 9.5809375 -5.80027344 8.786875 -5.82617188 7.96875 C-5.85254405 5.89413852 -5.71736462 3.81899135 -5.5625 1.75 C-2.5625 -0.25 -2.5625 -0.25 0 0 Z " fill="#181818" transform="translate(631.5625,582.25)"/>
<path d="M0 0 C0.99 0.33 1.98 0.66 3 1 C2.86177801 4.14621682 2.71314916 7.29185566 2.5625 10.4375 C2.50352539 11.78424805 2.50352539 11.78424805 2.44335938 13.15820312 C2.40146484 14.01220703 2.35957031 14.86621094 2.31640625 15.74609375 C2.27974854 16.53685303 2.24309082 17.3276123 2.20532227 18.14233398 C2 20 2 20 1 21 C-0.99958364 21.04080783 -3.00045254 21.04254356 -5 21 C-3.87288136 7.05932203 -3.87288136 7.05932203 -2 1 C-1.34 0.67 -0.68 0.34 0 0 Z " fill="#383838" transform="translate(328,505)"/>
<path d="M0 0 C0.99 0 1.98 0 3 0 C3.05390357 2.93774463 3.0936255 5.87450232 3.125 8.8125 C3.14175781 9.64587891 3.15851563 10.47925781 3.17578125 11.33789062 C3.18222656 12.14033203 3.18867188 12.94277344 3.1953125 13.76953125 C3.20578613 14.50792236 3.21625977 15.24631348 3.22705078 16.00708008 C3 18 3 18 1 21 C-1.625 21.1875 -1.625 21.1875 -4 21 C-4.35178687 13.84700024 -3.33746285 7.78227561 -1 1 C-0.67 0.67 -0.34 0.34 0 0 Z " fill="#2F2F2F" transform="translate(289,508)"/>
<path d="M0 0 C0.99 0 1.98 0 3 0 C3.02714735 2.22909871 3.04646254 4.45829367 3.0625 6.6875 C3.07410156 7.92886719 3.08570313 9.17023437 3.09765625 10.44921875 C3.01478673 13.46235454 2.70839449 16.08275339 2 19 C0.02 19.33 -1.96 19.66 -4 20 C-4.38307318 13.23237384 -3.17688744 7.41787022 -1 1 C-0.67 0.67 -0.34 0.34 0 0 Z " fill="#3C3C3C" transform="translate(250,512)"/>
<path d="M0 0 C4.70588235 0.70588235 4.70588235 0.70588235 6 2 C6.09873816 3.99799572 6.12971799 5.99957158 6.125 8 C6.12757813 9.093125 6.13015625 10.18625 6.1328125 11.3125 C6 14 6 14 5 15 C3.00041636 15.04080783 0.99954746 15.04254356 -1 15 C-1.02685412 12.68756208 -1.04632841 10.3750373 -1.0625 8.0625 C-1.07410156 6.77472656 -1.08570313 5.48695313 -1.09765625 4.16015625 C-1 1 -1 1 0 0 Z " fill="#2D2D2D" transform="translate(672,387)"/>
<path d="M0 0 C0.66 0.33 1.32 0.66 2 1 C2.02712153 2.916588 2.04645097 4.8332873 2.0625 6.75 C2.07410156 7.81734375 2.08570313 8.8846875 2.09765625 9.984375 C2.01510087 12.53368501 1.74617558 14.57933591 1 17 C-0.98 17.33 -2.96 17.66 -5 18 C-5.48529412 5.86764706 -5.48529412 5.86764706 -1.375 1.125 C-0.92125 0.75375 -0.4675 0.3825 0 0 Z " fill="#2F2F2F" transform="translate(308,510)"/>
<path d="M0 0 C1.66611905 -0.042721 3.33382885 -0.04063832 5 0 C6 1 6 1 6.09765625 4.16015625 C6.08605469 5.44792969 6.07445312 6.73570312 6.0625 8.0625 C6.05347656 9.35285156 6.04445313 10.64320313 6.03515625 11.97265625 C6.02355469 12.97167969 6.01195312 13.97070312 6 15 C4.02 15 2.04 15 0 15 C-1.15774649 10.36901402 -2.19218189 4.38436379 0 0 Z " fill="#2E2D2E" transform="translate(683,387)"/>
<path d="M0 0 C0.66 0 1.32 0 2 0 C2 5.94 2 11.88 2 18 C0.02 18 -1.96 18 -4 18 C-4.4033037 11.54714085 -3.64214341 6.91840123 -1 1 C-0.67 0.67 -0.34 0.34 0 0 Z " fill="#292929" transform="translate(269,512)"/>
<path d="M0 0 C0.99 0 1.98 0 3 0 C3.05397335 2.4377963 3.09365616 4.87439685 3.125 7.3125 C3.15013672 8.34793945 3.15013672 8.34793945 3.17578125 9.40429688 C3.21217794 13.17135396 3.14378864 14.78431704 1 18 C-0.32 18 -1.64 18 -3 18 C-2.51679152 11.7945858 -1.66681876 6.00054754 0 0 Z " fill="#3F3F3F" transform="translate(215,517)"/>
<path d="M0 0 C0.66 0.66 1.32 1.32 2 2 C1.9765625 4.8203125 1.9765625 4.8203125 1.625 8.125 C1.51414063 9.22070312 1.40328125 10.31640625 1.2890625 11.4453125 C1.14597656 12.70988281 1.14597656 12.70988281 1 14 C-0.65 14.33 -2.3 14.66 -4 15 C-4.63019694 4.84682713 -4.63019694 4.84682713 -2 1.3125 C-1.34 0.879375 -0.68 0.44625 0 0 Z " fill="#333233" transform="translate(232,519)"/>
</svg>
